<?xml version="1.0" encoding="UTF-8" standalone="no"?>
<svg
   xmlns:dc="http://purl.org/dc/elements/1.1/"
   xmlns:cc="http://creativecommons.org/ns#"
   xmlns:rdf="http://www.w3.org/1999/02/22-rdf-syntax-ns#"
   xmlns:svg="http://www.w3.org/2000/svg"
   xmlns="http://www.w3.org/2000/svg"
   xmlns:sodipodi="http://sodipodi.sourceforge.net/DTD/sodipodi-0.dtd"
   xmlns:inkscape="http://www.inkscape.org/namespaces/inkscape"
   id="f2140a5a-56b7-4720-ad2a-f6ac863ff279"
   data-name="Layer 1"
   width="710"
   height="670"
   viewBox="0 0 709.99999 670"
   version="1.1"
   sodipodi:docname="bookmarks.svg"
   inkscape:version="0.92.2 (5c3e80d, 2017-08-06)">
  <metadata
     id="metadata69">
    <rdf:RDF>
      <cc:Work
         rdf:about="">
        <dc:format>image/svg+xml</dc:format>
        <dc:type
           rdf:resource="http://purl.org/dc/dcmitype/StillImage" />
        <dc:title></dc:title>
      </cc:Work>
    </rdf:RDF>
  </metadata>
  <defs
     id="defs67" />
  <sodipodi:namedview
     pagecolor="#ffffff"
     bordercolor="#666666"
     borderopacity="1"
     objecttolerance="10"
     gridtolerance="10"
     guidetolerance="10"
     inkscape:pageopacity="0"
     inkscape:pageshadow="2"
     inkscape:window-width="1366"
     inkscape:window-height="745"
     id="namedview65"
     showgrid="false"
     inkscape:zoom="0.6477876"
     inkscape:cx="563.4653"
     inkscape:cy="280"
     inkscape:window-x="-8"
     inkscape:window-y="-8"
     inkscape:window-maximized="1"
     inkscape:current-layer="f2140a5a-56b7-4720-ad2a-f6ac863ff279" />
  <rect
     id="e95f2213-9bcc-4eb0-8355-05af38a3eafb"
     data-name="Rectangle 246"
     x="4.8739176"
     y="2.2623987"
     width="397.42609"
     height="208.67749"
     style="fill:#f2f2f2" />
  <rect
     id="b36aff44-79c8-4945-b2be-fafe94103ec8"
     data-name="Rectangle 264"
     width="397.42609"
     height="24.19149"
     x="4.6311474"
     y="1.939889"
     style="fill:#e6e6e6" />
  <rect
     id="e8d246b5-3278-4a22-b53c-870d78135d7d"
     data-name="Rectangle 247"
     x="13.861427"
     y="35.939888"
     width="381"
     height="164"
     style="fill:#ffffff" />
  <circle
     id="af47f094-7758-4c77-9c4d-96df8007094d"
     data-name="Ellipse 194"
     cx="42.291729"
     cy="13.973817"
     r="4.00175"
     style="fill:#ffffff" />
  <circle
     id="a9e4940e-a814-4d65-8cf9-dbeaebbe294d"
     data-name="Ellipse 195"
     cx="57.48172"
     cy="13.973817"
     r="4.00175"
     style="fill:#ffffff" />
  <circle
     id="a19a9b15-8247-4a07-9472-be354b993276"
     data-name="Ellipse 246"
     cx="27.062298"
     cy="13.973817"
     r="4.00175"
     style="fill:#ffffff" />
  <g
     id="e40d22fe-578f-4c94-aa61-62d9a8853a42"
     data-name="Group 31"
     transform="translate(4.6311476,1.939889)">
    <rect
       id="fc650e0a-90d3-4f46-9c22-349406f6a431"
       data-name="Rectangle 250"
       x="94.665817"
       y="82.059563"
       width="219.08742"
       height="9.76443"
       style="fill:#f2f2f2" />
    <rect
       id="a9c22b9d-d16d-4876-9a73-2e204591d63b"
       data-name="Rectangle 251"
       x="94.665817"
       y="106.47031"
       width="78.114792"
       height="9.76443"
       style="fill:#f2f2f2" />
    <rect
       id="a9cac377-a398-4b66-a887-af8e1ff2458e"
       data-name="Rectangle 252"
       x="94.665817"
       y="130.88106"
       width="155.61961"
       height="9.76443"
       style="fill:#f2f2f2" />
  </g>
  <rect
     id="ae236caa-6983-426a-9b06-907acb2b0100"
     data-name="Rectangle 246"
     x="51.635567"
     y="338.85419"
     width="374.00183"
     height="196.37805"
     style="fill:#f2f2f2" />
  <rect
     id="a3b9e66a-d826-4708-839f-4ee527686343"
     data-name="Rectangle 264"
     x="51.407104"
     y="338.55069"
     width="374.00183"
     height="22.76564"
     style="fill:#e6e6e6" />
  <rect
     id="aab7f417-816b-4c9c-990d-381bde365131"
     data-name="Rectangle 247"
     x="59.521652"
     y="369.23224"
     width="359.11572"
     height="156"
     style="fill:#ffffff" />
  <circle
     id="f8f639d0-e29b-4d5a-b588-284205311750"
     data-name="Ellipse 194"
     cx="86.847961"
     cy="349.87534"
     r="3.7658899"
     style="fill:#ffffff" />
  <circle
     id="b51d82ba-e700-447e-8693-718cbf9a6186"
     data-name="Ellipse 195"
     cx="101.14267"
     cy="349.87534"
     r="3.7658899"
     style="fill:#ffffff" />
  <circle
     id="adf412b1-46d6-41c6-a8e7-cb0dafcb21cb"
     data-name="Ellipse 246"
     cx="72.516167"
     cy="349.87534"
     r="3.7658899"
     style="fill:#ffffff" />
  <rect
     id="bb724a05-1311-47ea-a197-dba61202444a"
     data-name="Rectangle 246"
     x="146.77373"
     y="154.38126"
     width="443.63098"
     height="232.93842"
     style="fill:#e6e6e6" />
  <rect
     id="b7251c64-c1f0-4c9d-92b0-874b7a83a8e9"
     data-name="Rectangle 264"
     x="146.50273"
     y="154.02127"
     width="443.63098"
     height="27.004"
     style="fill:#6c63ff" />
  <rect
     id="ab817a57-2f27-4757-8aa6-60cd0ec7b964"
     data-name="Rectangle 247"
     x="156.73302"
     y="189.31967"
     width="423"
     height="185"
     style="fill:#ffffff" />
  <circle
     id="a7798ced-ee1a-4794-8024-1e89386a0136"
     data-name="Ellipse 194"
     cx="316.67014"
     cy="101.07447"
     r="4.467"
     style="fill:#ffffff" />
  <circle
     id="a86efddc-376d-49bc-bb2f-084d39c183b3"
     data-name="Ellipse 195"
     cx="333.62613"
     cy="101.07447"
     r="4.467"
     style="fill:#ffffff" />
  <circle
     id="be9ec433-53e3-4401-a112-00f5748904d3"
     data-name="Ellipse 246"
     cx="299.67014"
     cy="101.07447"
     r="4.467"
     style="fill:#ffffff" />
  <g
     id="e9ebe1f0-a35b-432b-8b90-74480dfb3bf9"
     data-name="Group 31"
     transform="translate(-123.49727,68.319671)">
    <rect
       id="f96caaa1-6c15-4961-b53f-9d0c3661d201"
       data-name="Rectangle 250"
       x="329.78549"
       y="168.6355"
       width="324.33099"
       height="14.455"
       style="fill:#e6e6e6" />
    <rect
       id="b84ba293-ba99-4f02-8939-e0d4d3784a38"
       data-name="Rectangle 251"
       x="329.78549"
       y="204.77251"
       width="115.639"
       height="14.455"
       style="fill:#e6e6e6" />
    <rect
       id="b3127a43-0306-472e-b694-e809c29e74cb"
       data-name="Rectangle 252"
       x="329.78549"
       y="240.9095"
       width="230.375"
       height="14.455"
       style="fill:#e6e6e6" />
  </g>
  <g
     id="b98a0618-17e9-4407-b210-398d3f3d6a2f"
     data-name="Group 31"
     transform="translate(-38.592897,65.23224)">
    <rect
       id="f815513a-42d1-48f0-8051-0e3f5098eb8b"
       data-name="Rectangle 250"
       x="163.67171"
       y="350.30142"
       width="244.55858"
       height="10.89965"
       style="fill:#f2f2f2" />
    <rect
       id="fd32ddd7-816d-43c9-8317-e96306581af5"
       data-name="Rectangle 251"
       x="163.67171"
       y="377.55017"
       width="87.196449"
       height="10.89965"
       style="fill:#f2f2f2" />
    <rect
       id="eae90b12-7883-428a-9e47-6f1258f1f191"
       data-name="Rectangle 252"
       x="163.67171"
       y="404.79892"
       width="173.71199"
       height="10.89965"
       style="fill:#f2f2f2" />
  </g>
  <polygon
     points="481.491,100.766 503.728,92.924 502.342,89.215 "
     id="polygon32"
     style="fill:#ffffff"
     transform="matrix(1.1131804,0,0,1.0756625,-169.86795,64.787637)" />
  <ellipse
     cx="323.90604"
     cy="272.17053"
     rx="6.4550614"
     ry="12.649161"
     transform="matrix(0.95410939,-0.29945831,0.31861916,0.94788282,0,0)"
     id="ellipse34"
     style="fill:#3f3d56;stroke-width:1.09437168" />
  <polygon
     points="526.23,85.817 512.845,94.858 509.46,82.667 523.29,77.675 "
     id="polygon36"
     style="fill:#3f3d56"
     transform="matrix(1.1131804,0,0,1.0756625,-169.86795,64.787637)" />
  <path
     d="m 408.81521,158.009 a 14.994718,14.489347 0 0 0 21.02072,9.00208 l 37.8704,36.22318 5.42832,-26.23782 -36.79464,-30.37563 a 15.07598,14.56787 0 0 0 -27.52485,11.38821 z"
     id="path38"
     inkscape:connector-curvature="0"
     style="fill:#a0616a;stroke-width:1.09426069" />
  <path
     d="m 697.4136,386.54894 a 14.994696,14.489325 0 0 0 -3.52288,-21.95535 l 11.07202,-50.36646 -25.77936,9.76751 -6.56198,46.33138 a 15.07598,14.56787 0 0 0 24.7922,16.22291 z"
     id="path40"
     inkscape:connector-curvature="0"
     style="fill:#a0616a;stroke-width:1.09426069" />
  <polygon
     points="642.795,479.811 667.033,479.812 667.031,543.156 650.608,543.156 "
     id="polygon42"
     style="fill:#a0616a"
     transform="matrix(1.1131804,0,0,1.0756625,-169.86795,64.787637)" />
  <path
     d="m 577.31943,666.06924 -58.94611,-0.002 v -0.71645 a 22.942993,22.046692 0 0 1 22.94363,-22.0469 h 10e-4 l 36.00214,10e-4 z"
     id="path44"
     inkscape:connector-curvature="0"
     style="fill:#2f2e41;stroke-width:1.09121978" />
  <polygon
     points="723.168,479.811 747.406,479.812 747.403,543.156 730.981,543.156 "
     id="polygon46"
     style="fill:#a0616a"
     transform="matrix(1.1131804,0,0,1.0756625,-169.86795,64.787637)" />
  <path
     d="m 666.78867,666.06924 -58.94611,-0.002 v -0.71645 a 22.942971,22.04667 0 0 1 22.94361,-22.04694 h 10e-4 l 36.00217,10e-4 z"
     id="path48"
     inkscape:connector-curvature="0"
     style="fill:#2f2e41;stroke-width:1.09121978" />
  <path
     d="m 574.56208,613.46158 -25.87859,-1.00047 a 6.7312795,6.504413 0 0 1 -6.43864,-6.67682 l 7.29087,-231.08958 0.47617,-0.16604 c 45.35535,-15.85409 82.87594,-14.65523 114.7086,3.65993 l 0.356,0.20546 4.36756,225.0713 a 6.7095725,6.4834376 0 0 1 -6.70914,6.60646 h -21.8216 a 6.7250345,6.4983785 0 0 1 -6.58459,-5.2331 L 604.60247,458.71847 a 2.2363794,2.161006 0 0 0 -4.41487,0.1576 l -18.6962,148.88806 a 6.7482666,6.5208276 0 0 1 -6.66433,5.70167 c -0.0877,0 -0.17657,-10e-4 -0.26499,-0.004 z"
     id="path50"
     inkscape:connector-curvature="0"
     style="fill:#2f2e41;stroke-width:1.09426069" />
  <ellipse
     cx="454.90277"
     cy="401.11313"
     transform="matrix(0.88421909,-0.46707238,0.49239031,0.87037451,0,0)"
     id="circle52"
     style="fill:#a0616a;stroke-width:1.0944885"
     rx="36.344006"
     ry="35.677711" />
  <path
     d="m 437.0187,171.84925 a 6.7186004,6.4921612 0 0 1 2.71943,-2.84067 l 11.04507,-6.12842 a 6.732081,6.5051875 0 0 1 7.67858,0.67618 l 36.69775,30.0416 84.34809,22.85126 a 21.61655,20.888001 0 1 1 -18.3833,37.81114 l -53.87991,-11.72072 a 69.149977,66.819393 0 0 1 -40.6913,-25.81515 l -28.89483,-38.27099 a 6.7175985,6.4911932 0 0 1 -1.14232,-5.17038 6.6428373,6.4189516 0 0 1 0.50274,-1.43385 z"
     id="path54"
     inkscape:connector-curvature="0"
     style="fill:#3f3d56;stroke-width:1.09426069" />
  <path
     d="m 695.8498,353.94065 a 6.7185781,6.4921397 0 0 1 -4.00088,0.16701 l -12.30877,-3.16274 a 6.7320921,6.5051983 0 0 1 -4.95989,-5.70433 L 670.4104,298.94006 627.16417,225.3262 a 21.61655,20.888001 0 1 1 40.6051,-14.34295 l 29.72058,44.98064 a 69.15011,66.819522 0 0 1 10.0853,46.01632 l -7.36736,46.83558 a 6.7176096,6.4912039 0 0 1 -2.95616,4.44874 6.643149,6.4192528 0 0 1 -1.40183,0.67612 z"
     id="path56"
     inkscape:connector-curvature="0"
     style="fill:#3f3d56;stroke-width:1.09426069" />
  <path
     d="m 559.67853,199.49419 a 62.363806,60.261939 0 0 1 50.009,-19.53796 q 0.91851,0.0549 1.82973,0.12382 h 7.3e-4 a 62.232351,60.134914 0 0 1 44.97276,23.98588 63.168324,61.039342 0 0 1 11.22075,49.19878 197.37065,190.71861 0 0 0 5.21391,97.80233 l 9.82504,29.4793 a 6.7080252,6.4819424 0 0 1 -6.0272,8.46106 l -50.22964,2.60956 -12.8539,-21.45455 v 22.12231 l -61.04922,3.17158 c -0.1216,0.007 -0.24247,0.01 -0.3626,0.01 a 6.7102515,6.4840938 0 0 1 -6.68617,-7.00471 l 6.90022,-82.68135 -8.65498,-56.15561 a 62.761568,60.646294 0 0 1 15.89157,-50.13029 z"
     id="path58"
     inkscape:connector-curvature="0"
     style="fill:#3f3d56;stroke-width:1.09426069" />
  <path
     d="m 625.19167,170.4309 c -3.39088,1.88532 -16.79408,3.13533 -17.74889,-0.53063 l -0.0205,-0.0805 c -0.66469,-2.686 -0.11273,-5.49081 0.078,-8.24637 0.19076,-2.75558 -0.0884,-5.78271 -2.03058,-7.80876 -3.62052,-3.77679 -10.06165,-1.77468 -15.29692,-2.72964 a 12.919794,12.484355 0 0 1 -10.05042,-13.33245 c 0.0746,-0.57276 0.19147,-1.14616 0.32258,-1.71921 a 9.9502967,9.6149387 0 0 0 -10.32886,-11.64432 c -5.29077,0.29234 -11.00167,1.84132 -15.37912,-1.94539 -3.38508,-2.92823 -4.21096,-10.55076 -2.72365,-14.69906 2.49952,-6.97151 18.51074,-10.62121 25.5015,-12.627554 a 60.571074,58.529628 0 0 1 51.341,8.140424 c 4.41558,3.00749 8.53927,6.78635 10.42128,11.67954 1.88201,4.89319 0.97403,11.06651 -3.26977,14.29663 a 27.33587,26.414561 0 0 1 6.33177,25.65725 c -2.09619,6.5265 -12.09999,12.78371 -17.14748,15.5901 z"
     id="path60"
     inkscape:connector-curvature="0"
     style="fill:#2f2e41;stroke-width:1.09426069" />
  <path
     d="M 699.95756,667.05809 H 470.86608 a 0.6012899,1.0696924 0 0 1 0,-2.13938 h 229.09148 a 0.6012899,1.0696924 0 0 1 0,2.13938 z"
     id="path62"
     inkscape:connector-curvature="0"
     style="fill:#3f3d56;stroke-width:0.8019945" />
</svg>
