<?xml version="1.0" encoding="UTF-8" standalone="no"?>
<svg
   xmlns:dc="http://purl.org/dc/elements/1.1/"
   xmlns:cc="http://creativecommons.org/ns#"
   xmlns:rdf="http://www.w3.org/1999/02/22-rdf-syntax-ns#"
   xmlns:svg="http://www.w3.org/2000/svg"
   xmlns="http://www.w3.org/2000/svg"
   xmlns:sodipodi="http://sodipodi.sourceforge.net/DTD/sodipodi-0.dtd"
   xmlns:inkscape="http://www.inkscape.org/namespaces/inkscape"
   id="ae5f5559-570c-4c14-9324-22f1786600a2"
   data-name="Layer 1"
   width="710"
   height="670"
   viewBox="0 0 710 670"
   version="1.1"
   sodipodi:docname="languages.svg"
   inkscape:version="0.92.2 (5c3e80d, 2017-08-06)">
  <metadata
     id="metadata77">
    <rdf:RDF>
      <cc:Work
         rdf:about="">
        <dc:format>image/svg+xml</dc:format>
        <dc:type
           rdf:resource="http://purl.org/dc/dcmitype/StillImage" />
        <dc:title>static_website</dc:title>
      </cc:Work>
    </rdf:RDF>
  </metadata>
  <defs
     id="defs75" />
  <sodipodi:namedview
     pagecolor="#ffffff"
     bordercolor="#666666"
     borderopacity="1"
     objecttolerance="10"
     gridtolerance="10"
     guidetolerance="10"
     inkscape:pageopacity="0"
     inkscape:pageshadow="2"
     inkscape:window-width="1366"
     inkscape:window-height="745"
     id="namedview73"
     showgrid="false"
     inkscape:zoom="0.85970149"
     inkscape:cx="355"
     inkscape:cy="335"
     inkscape:window-x="-8"
     inkscape:window-y="-8"
     inkscape:window-maximized="1"
     inkscape:current-layer="ae5f5559-570c-4c14-9324-22f1786600a2"
     inkscape:snap-grids="true" />
  <title
     id="title2">static_website</title>
  <ellipse
     cx="289.51181"
     cy="513.88641"
     rx="284"
     ry="10.5"
     id="ellipse30"
     style="fill:#d0cde1" />
  <ellipse
     cx="482.39163"
     cy="656.01044"
     rx="221"
     ry="10.5"
     id="ellipse32"
     style="fill:#d0cde1" />
  <polygon
     points="97.146,389.118 97.146,368.25 82.034,366.091 79.876,390.558 "
     id="polygon38"
     style="fill:#ffb8b8"
     transform="matrix(1.316791,0,0,1.2395772,3.4895833,77.697919)" />
  <polygon
     points="51.092,389.118 51.092,368.25 66.203,366.091 68.362,390.558 "
     id="polygon40"
     style="fill:#ffb8b8"
     transform="matrix(1.316791,0,0,1.2395772,3.4895833,77.697919)" />
  <path
     d="m 150.36178,298.6844 c 0,0 7.58049,42.81598 7.58049,49.05998 0,6.24401 -2.84268,46.38397 -7.58049,54.41197 -4.73782,8.028 -5.68538,11.596 -3.79027,15.164 1.89514,3.56801 0.94757,2.67599 0,5.35199 -0.94755,2.676 -2.84267,1.78399 0,5.352 a 9.9557564,9.3719724 0 0 1 0,10.70399 c -1.89511,2.67602 3.79027,74.92797 -3.79024,80.27997 -7.58051,5.35202 -9.47563,23.192 -9.47563,23.192 l -24.63661,-2.67602 v -19.624 c 0,0 -5.68538,-14.27195 -1.89513,-23.19196 3.79026,-8.92001 5.68538,-56.19595 5.68538,-56.19595 0,0 -0.94757,-4.46001 0,-7.13602 0.94756,-2.67599 0,-4.46001 -1.89512,-5.352 -1.89513,-0.892 -2.8427,-4.46 -2.8427,-4.46 l -2.84268,-65.11596 -11.370758,64.22389 c 0,0 11.370758,87.41596 0,99.01195 v 20.516 H 68.871403 l 3.790252,-22.3 c 0,0 -7.580503,-20.51599 -3.790252,-24.97599 3.790252,-4.46001 -11.370753,-75.81997 -9.475628,-78.49594 1.895125,-2.67598 0.947563,-3.568 0,-5.35202 -0.947562,-1.78399 -3.790251,-3.56798 -2.842689,-5.352 0.947564,-1.78398 0,-5.352 0,-5.352 0,0 -18.003693,-83.84793 -9.475628,-91.87594 8.528066,-8.028 103.284322,-9.81194 103.284322,-9.81194 z"
     id="path42"
     inkscape:connector-curvature="0"
     style="fill:#2f2e41;stroke-width:1.27760088" />
  <path
     d="m 114.35441,550.22828 c 0,0 1.89512,-8.55476 17.05612,-5.6154 0,0 3.79023,7.3994 3.79023,10.9674 0,3.56799 3.79026,27.65197 3.79026,27.65197 0,0 15.16101,24.084 -3.79026,24.084 -18.95124,0 -25.58417,-6.24401 -26.53173,-12.48801 -0.94757,-6.244 0.94756,-8.02798 -2.84269,-10.70399 -3.79025,-2.67599 -5.68538,-2.67599 -4.73781,-6.244 0.94756,-3.568 2.84268,-21.40797 2.84268,-21.40797 0,0 0.94757,-13.38 6.15916,-9.812 l 5.2116,3.568"
     id="path44"
     inkscape:connector-curvature="0"
     style="fill:#2f2e41;stroke-width:1.27760088" />
  <path
     d="m 87.822646,550.22828 c 0,0 -1.895126,-8.55476 -17.056118,-5.6154 0,0 -3.79025,7.3994 -3.79025,10.9674 0,3.56799 -3.790251,27.65197 -3.790251,27.65197 0,0 -15.161005,24.084 3.790251,24.084 18.951254,0 25.584182,-6.24401 26.531744,-12.48801 0.947564,-6.244 -0.947562,-8.02798 2.842689,-10.70399 3.790249,-2.67599 5.685379,-2.67599 4.737819,-6.244 -0.94757,-3.568 -2.842694,-21.40797 -2.842694,-21.40797 0,0 -0.947562,-13.38 -6.159157,-9.812 l -5.211596,3.568"
     id="path46"
     inkscape:connector-curvature="0"
     style="fill:#2f2e41;stroke-width:1.27760088" />
  <ellipse
     cx="115.30198"
     cy="110.47247"
     id="circle48"
     style="fill:#ffb8b8;stroke-width:1.27760088"
     rx="25.584194"
     ry="24.083994" />
  <path
     d="m 94.455586,114.04049 c 0,0 -10.423192,38.35598 -12.318317,39.24798 -1.895125,0.892 43.587881,4.46 43.587881,4.46 0,0 -11.37074,-33.00401 0,-38.35598 z"
     id="path50"
     inkscape:connector-curvature="0"
     style="fill:#ffb8b8;stroke-width:1.27760088" />
  <path
     d="m 87.79897,137.41441 -0.0012,-0.005 -31.244658,20.33904 5.685377,159.66791 c 0,0 41.692751,-4.45999 51.168381,-3.568 9.47563,0.892 39.79762,-8.02801 39.79762,-8.02801 L 139.9229,155.7872 a 13.091431,12.323778 0 0 0 -12.1253,-11.2698 l -5.69084,-0.37778 c 0,0 -5.68496,13.25023 -22.789465,6.4144 A 19.957587,18.787317 0 0 1 87.79897,137.41441 Z"
     id="path52"
     inkscape:connector-curvature="0"
     style="fill:#d0cde1;stroke-width:1.27760088" />
  <path
     d="m 88.554517,135.95806 -38.63437,17.33041 -7.580503,102.57997 c 0,0 -15.161004,61.54799 -2.842687,79.38795 12.318315,17.83999 33.164698,19.624 33.164698,19.624 0,0 27.479305,-102.57997 19.898805,-137.36792 -7.580502,-34.78797 -4.005943,-81.55441 -4.005943,-81.55441 z"
     id="path54"
     inkscape:connector-curvature="0"
     style="fill:#575a89;stroke-width:1.27760088" />
  <path
     d="m 15.8079,290.65639 v 13.38 c 0,0 -5.685377,29.43598 12.318302,28.54398 18.00368,-0.89199 9.475628,-32.11198 9.475628,-32.11198 l -5.685376,-9.812 z"
     id="path56"
     inkscape:connector-curvature="0"
     style="fill:#ffb8b8;stroke-width:1.27760088" />
  <path
     d="m 182.5789,317.41638 -1.89512,15.16399 c 0,0 9.47563,30.328 -8.52806,31.21999 -18.00369,0.89199 -4.93533,-31.03384 -4.93533,-31.03384 l 5.88283,-17.13414 z"
     id="path58"
     inkscape:connector-curvature="0"
     style="fill:#ffb8b8;stroke-width:1.27760088" />
  <path
     d="m 121.53658,141.02223 v 0 a 111.59388,105.05027 0 0 1 46.66501,22.83568 l 0.16384,0.13454 -13.26587,66.00796 -1.89513,24.08398 c 0,0 35.05981,117.74395 -5.68537,100.79595 0,0 -35.05981,-102.57996 -30.322,-149.85592 4.73781,-47.27594 4.33952,-64.00219 4.33952,-64.00219 z"
     id="path60"
     inkscape:connector-curvature="0"
     style="fill:#575a89;stroke-width:1.27760088" />
  <path
     d="m 156.04716,163.10047 c 0.94755,-0.892 12.31831,1.23957 12.31831,1.23957 0,0 20.84637,69.22838 20.84637,80.82437 0,11.596 2.84268,77.60397 2.84268,77.60397 l -25.01262,2.37346 -20.24575,-91.71191 z"
     id="path62"
     inkscape:connector-curvature="0"
     style="fill:#575a89;stroke-width:1.27760088" />
  <path
     d="m 56.553086,153.28847 h -6.632939 c 0,0 -18.951256,7.13599 -19.898818,15.164 -0.947564,8.028 -26.5317457,89.19998 -26.5317457,89.19998 l 6.6329397,41.03197 24.63662,-3.568 4.737814,-45.49198 24.636632,-49.95197 z"
     id="path64"
     inkscape:connector-curvature="0"
     style="fill:#575a89;stroke-width:1.27760088" />
  <path
     d="m 110.33162,117.19408 0.9809,-6.43699 c 0.22862,-1.50034 1.16142,-3.47305 2.71204,-3.06503 1.31889,0.34709 4.19234,1.40987 4.67342,1.08905 1.80164,-1.20143 4.52802,0.89935 6.42257,-0.16794 0.79377,-0.44715 1.31152,-1.40516 2.23409,-1.4691 a 2.5448302,2.395607 0 0 1 1.64008,0.69945 11.162714,10.508155 0 0 0 4.2455,2.17109 4.5666311,4.2988539 0 0 0 4.46949,-1.14681 2.373608,2.2344248 0 0 1 0.79035,-0.71322 1.7731775,1.6692022 0 0 1 1.13651,0.0491 l 4.84067,1.24067 a 18.600411,17.509723 0 0 0 -2.48859,-14.416078 30.801334,28.99521 0 0 0 -7.05038,-6.499913 q -4.49666,-3.220268 -9.28108,-6.057813 a 30.144098,28.376514 0 0 0 -11.27567,-4.61791 c -4.08206,-0.583526 -8.65282,0.460466 -11.22047,3.504285 a 7.2250216,6.8013619 0 0 1 -2.59885,-3.304919 2.6594305,2.5034874 0 0 0 0.17158,3.838558 l -4.093902,-2.460995 c -1.150874,1.137521 1.09765,3.20022 0.117063,4.471302 a 2.5015869,2.3548993 0 0 1 -1.102153,0.677406 18.767051,17.666591 0 0 0 -6.002791,3.556639 22.399036,21.085607 0 0 0 -4.727583,8.198042 c -2.439499,6.588276 -4.212532,14.143776 -0.746474,20.310876 0.392943,0.69912 5.579782,12.239 6.270808,12.68901 2.335987,1.52114 0.815344,-2.16021 2.489183,0 1.312577,1.69396 1.066877,-4.78948 3.017611,-3.36635 a 4.8629092,4.5777588 0 0 0 5.293058,0.22408 c 0.80877,-0.52799 0.54816,-3.45994 0.1118,-6.15238 a 3.369576,3.1719916 0 0 1 4.09959,-3.56869 c 2.4296,0.53804 4.82998,0.99778 4.87161,0.72451 z"
     id="path66"
     inkscape:connector-curvature="0"
     style="fill:#2f2e41;stroke-width:1.27760088" />
  <polygon
     points="120.533,199.504 117.655,134.02 125.57,199.504 "
     id="polygon68"
     style="opacity:0.2"
     transform="matrix(1.316791,0,0,1.2395772,3.4895833,77.697919)" />
  <polygon
     points="37.779,108.834 35.62,108.834 34.181,108.834 30.179,134.02 "
     id="polygon70"
     style="opacity:0.2"
     transform="matrix(1.316791,0,0,1.2395772,3.4895833,77.697919)" />
  <text
     xml:space="preserve"
     style="font-style:normal;font-variant:normal;font-weight:normal;font-stretch:normal;font-size:17.33333397px;line-height:1.25;font-family:'Arial Rounded MT Bold';-inkscape-font-specification:'Arial Rounded MT Bold, ';letter-spacing:0px;word-spacing:0px;fill:#000000;fill-opacity:1;stroke:none"
     x="385.54797"
     y="770.28705"
     id="text45"><tspan
       sodipodi:role="line"
       id="tspan43"
       x="385.54797"
       y="785.9071" /></text>
  <g
     aria-label="C/C++"
     style="font-style:normal;font-variant:normal;font-weight:normal;font-stretch:normal;font-size:96px;line-height:1.25;font-family:Impact;-inkscape-font-specification:Impact;letter-spacing:0px;word-spacing:0px;fill:#3f3d56;fill-opacity:1;stroke:none"
     id="text53"
     transform="translate(124.89945,-111.37037)">
    <path
       id="path299"
       d="m 272.29382,569.50704 h 16.82812 v -16.875 h 11.4375 v 16.875 h 16.92188 v 11.4375 h -16.92188 v 16.78125 h -11.4375 v -16.78125 h -16.82812 z m -51.1875,0 c 5.60937,0 11.21875,0 16.82812,0 0,-5.625 0,-11.25 0,-16.875 3.8125,0 7.625,0 11.4375,0 0,5.625 0,11.25 0,16.875 5.64063,0 11.28125,0 16.92188,0 0,3.8125 0,7.625 0,11.4375 -5.64063,0 -11.28125,0 -16.92188,0 0,5.59375 0,11.1875 0,16.78125 -3.8125,0 -7.625,0 -11.4375,0 0,-5.59375 0,-11.1875 0,-16.78125 -5.60937,0 -11.21875,0 -16.82812,0 0,-3.8125 0,-7.625 0,-11.4375 z m -6.23438,0.79687 c -6.57812,0 -13.15625,0 -19.73437,0 -0.083,-6.24052 0.21093,-12.49695 -0.25635,-18.7229 0.36905,-3.48301 -5.06384,-4.29531 -6.25928,-1.38647 -1.09317,4.79543 -0.50839,9.77737 -0.65625,14.66102 0.0486,10.56529 -0.10503,21.13433 0.0923,31.69689 -0.55469,3.14275 1.95939,6.75677 5.33349,4.87646 2.40172,-2.28837 1.40694,-6.19226 1.7461,-9.1875 0,-3.17187 0,-6.34375 0,-9.51562 6.57812,0 13.15625,0 19.73437,0 -0.076,6.77021 0.24888,13.74448 -1.90851,20.25109 -3.13891,7.17563 -11.0475,11.20569 -18.6118,11.62725 -7.7982,0.48348 -16.77674,-0.89093 -21.96583,-7.33983 -3.88223,-5.26772 -3.79039,-12.16779 -4.12592,-18.41474 -0.0129,-10.55203 -0.12921,-21.10799 0.095,-31.65783 0.0104,-5.08883 0.96559,-10.44912 4.5031,-14.34265 6.1249,-6.94075 16.29596,-8.18432 24.97005,-6.67566 7.22333,1.19227 14.61833,6.07386 15.95668,13.71899 1.40916,6.70922 1.02603,13.60003 1.08719,20.4115 z m -50.67187,-34.54687 -22.5,78.79687 h -14.34375 l 22.64062,-78.79687 z m -40.64063,34.54687 c -6.57812,0 -13.15625,0 -19.73437,0 -0.12379,-6.47035 0.31078,-12.9734 -0.36914,-19.41503 -2.0464,-5.69161 -8.554789,-0.35108 -6.761723,4.1748 -0.03882,13.8283 -0.128092,27.66248 0.05127,41.48877 -1.646543,5.97834 7.795703,7.16745 6.903813,0.78662 0.31102,-4.86396 0.12463,-9.74239 0.17578,-14.61328 6.57812,0 13.15625,0 19.73437,0 -0.18481,7.36315 0.52771,15.21788 -2.76269,22.02539 -5.17406,8.48412 -16.12753,11.05756 -25.422184,9.63666 -7.741614,-0.67314 -15.968894,-5.57079 -17.248901,-13.7937 -1.926544,-10.2089 -0.976365,-20.64636 -1.206848,-30.97191 0.186302,-7.33502 -0.691562,-14.91988 1.675781,-21.97066 3.480283,-8.74394 13.588446,-12.51268 22.417782,-12.02198 8.6182,-0.07 18.80004,4.08622 21.18329,13.14112 1.75371,7.03227 1.28952,14.35019 1.36377,21.5332 z"
       inkscape:connector-curvature="0" />
  </g>
  <g
     aria-label="PYTHON"
     style="font-style:normal;font-variant:normal;font-weight:normal;font-stretch:normal;font-size:96px;line-height:1.25;font-family:Impact;-inkscape-font-specification:Impact;letter-spacing:7px;word-spacing:0px;fill:#3f3d56;fill-opacity:1;stroke:none"
     id="text57"
     transform="translate(-94.035248,-3.5457502)">
    <path
       id="path316"
       d="m 737.73938,571.56812 v 75.89062 H 720.4425 l -10.26562,-34.5 v 34.5 h -16.5 v -75.89062 h 16.5 l 11.0625,34.17187 v -34.17187 z m -58.46875,44.4375 c -0.15084,6.36423 0.2269,12.83974 -1.11365,19.09991 -1.8751,7.17841 -8.5003,12.31783 -15.69104,13.41962 -8.16391,1.36607 -17.68661,0.34632 -23.6001,-6.01648 -3.75154,-3.88304 -5.03465,-9.34876 -5.03173,-14.60119 -0.34647,-11.19853 -0.23759,-22.4091 -0.12104,-33.61103 0.12443,-5.55578 0.21858,-11.56141 3.79193,-16.16583 5.0735,-7.01357 14.46481,-8.84887 22.6225,-7.95941 7.13583,0.62354 14.36047,4.5368 17.19141,11.39282 2.29091,5.45435 1.63935,11.53663 1.93194,17.30987 0.0367,5.71044 0.013,11.42117 0.0198,17.13172 z m -19.73438,-24.9375 c -0.37431,-2.66034 0.88407,-7.32568 -2.56274,-8.22656 -4.35655,-0.22695 -3.43087,5.37563 -3.62476,8.22656 0.0404,13.22733 -0.0858,26.45675 0.0725,39.68261 -0.50757,2.80465 1.21346,7.00505 4.62671,5.0127 2.07832,-2.40122 1.16505,-6.05007 1.48608,-9.00165 0.005,-11.89788 7.5e-4,-23.79577 0.002,-35.69366 z m -40.23437,-19.5 v 75.89062 H 599.5675 v -31.875 h -5.90625 v 31.875 h -19.73437 v -75.89062 h 19.73437 v 27.14062 h 5.90625 v -27.14062 z m -56.875,0 v 15.1875 h -11.71875 v 60.70312 h -19.73438 v -60.70312 h -11.67187 v -15.1875 z m -50.07813,0 -14.39062,48.42187 v 27.46875 h -18.28125 v -27.46875 l -13.875,-48.42187 h 18.14062 q 4.26563,22.17187 4.78125,29.85937 1.64063,-12.14062 5.48438,-29.85937 z m -97.23437,0 c 8.46445,0.0713 16.93635,-0.16891 25.39453,0.17798 5.44218,0.37388 11.8381,1.56751 14.81909,6.68188 2.71814,4.95009 2.16568,10.83147 2.302,16.28825 -0.11058,5.39506 0.53224,11.10649 -1.91455,16.09725 -3.04982,4.94576 -9.40639,5.97202 -14.77093,6.0758 -2.03186,0.0148 -4.06385,0.003 -6.09577,0.007 0,10.1875 0,20.375 0,30.5625 -6.57812,0 -13.15625,0 -19.73437,0 0,-25.29687 0,-50.59375 0,-75.89062 z m 19.73437,12.98437 c 0,6.4375 0,12.875 0,19.3125 3.28778,0.8505 6.62736,-1.33615 6.21387,-4.91307 0.0647,-3.56281 0.19671,-7.14814 -0.10401,-10.70068 -0.0324,-3.32531 -3.54706,-3.76692 -6.10986,-3.69875 z"
       inkscape:connector-curvature="0" />
  </g>
  <g
     id="g148"
     transform="rotate(21.511574,2436.8992,294.6779)">
    <g
       id="g47"
       transform="matrix(0.95307811,0.10922427,-0.10639522,0.95549701,145.43063,-22.153699)">
      <g
         id="g139"
         transform="rotate(-0.18534106,42718.686,-29859.858)">
        <g
           transform="translate(-4.006015,-4.6394981e-5)"
           id="g133">
          <path
             style="fill:#3f3d56;fill-opacity:1;stroke-width:0.84112787"
             d="m 661.14149,937.92064 -415.9997,-0.48133 c -26.50997,-0.0307 -47.98237,-15.25974 -47.96067,-34.01533 l 0.18336,-158.47903 c 0.0217,-18.75572 21.52929,-33.93494 48.03926,-33.90426 l 415.9997,0.48132 c 26.50999,0.0307 47.98238,15.25962 47.96068,34.01533 l -0.18337,158.47904 c -0.0217,18.75559 -21.52927,33.93493 -48.03926,33.90426 z"
             id="path81-3-1"
             inkscape:connector-curvature="0" />
          <path
             style="fill:#b3b3b3;fill-opacity:1;stroke-width:0.68599439"
             d="m 644.55929,687.51114 c 4.22495,-1.0484 12.70361,2.1568 14.11764,-1.7025 -0.61095,-4.5955 1.19611,-11.609 -0.85127,-14.768 -3.99174,1.2817 -13.37062,-2.8238 -13.26637,2.5538 0,4.6389 0,9.2778 0,13.9167 z m -6.47059,23.5295 c 9.01961,0 18.03921,0 27.05882,0 0,-7.8431 0,-15.6863 0,-23.5294 -9.01961,0 -18.03921,0 -27.05882,0 0,7.8431 0,15.6863 0,23.5294 z m -59.64455,-23.5295 c 4.22495,-1.0484 12.70361,2.1568 14.11764,-1.7025 -0.61095,-4.5955 1.19611,-11.609 -0.85127,-14.768 -3.99174,1.2817 -13.37062,-2.8238 -13.26637,2.5538 0,4.6389 0,9.2778 0,13.9167 z m -6.47059,23.5295 c 9.01961,0 18.03921,0 27.05882,0 0,-7.8431 0,-15.6863 0,-23.5294 -9.01961,0 -18.03921,0 -27.05882,0 0,7.8431 0,15.6863 0,23.5294 z m -59.64451,-23.5295 c 4.22495,-1.0484 12.70361,2.1568 14.11764,-1.7025 -0.61095,-4.5955 1.19611,-11.609 -0.85127,-14.768 -3.99174,1.2817 -13.37062,-2.8238 -13.26637,2.5538 0,4.6389 0,9.2778 0,13.9167 z m -6.47059,23.5295 c 9.01961,0 18.03921,0 27.05882,0 0,-7.8431 0,-15.6863 0,-23.5294 -9.01961,0 -18.03921,0 -27.05882,0 0,7.8431 0,15.6863 0,23.5294 z m -59.64464,-23.5295 c 4.22495,-1.0484 12.70361,2.1568 14.11764,-1.7025 -0.61095,-4.5955 1.19611,-11.609 -0.85127,-14.768 -3.99174,1.2817 -13.37062,-2.8238 -13.26637,2.5538 0,4.6389 0,9.2778 0,13.9167 z m -6.47059,23.5295 c 9.01961,0 18.03921,0 27.05882,0 0,-7.8431 0,-15.6863 0,-23.5294 -9.01961,0 -18.03921,0 -27.05882,0 0,7.8431 0,15.6863 0,23.5294 z m -59.64456,-23.5295 c 4.22495,-1.0484 12.70361,2.1568 14.11764,-1.7025 -0.61095,-4.5955 1.19611,-11.609 -0.85127,-14.768 -3.99174,1.2817 -13.37062,-2.8238 -13.26637,2.5538 0,4.6389 0,9.2778 0,13.9167 z m -6.47059,23.5295 c 9.01961,0 18.03921,0 27.05882,0 0,-7.8431 0,-15.6863 0,-23.5294 -9.01961,0 -18.03921,0 -27.05882,0 0,7.8431 0,15.6863 0,23.5294 z m -59.64459,-23.5295 c 4.22495,-1.0484 12.70361,2.1568 14.11764,-1.7025 -0.61095,-4.5955 1.19611,-11.609 -0.85127,-14.768 -3.99174,1.2817 -13.37062,-2.8238 -13.26637,2.5538 0,4.6389 0,9.2778 0,13.9167 z m -6.47059,23.5295 c 9.01961,0 18.03921,0 27.05882,0 0,-7.8431 0,-15.6863 0,-23.5294 -9.01961,0 -18.03921,0 -27.05882,0 0,7.8431 0,15.6863 0,23.5294 z m -59.64458,-23.5295 c 4.22495,-1.0484 12.70361,2.1568 14.11764,-1.7025 -0.61095,-4.5955 1.19611,-11.609 -0.85127,-14.768 -3.99174,1.2817 -13.37062,-2.8238 -13.26637,2.5538 0,4.6389 0,9.2778 0,13.9167 z m -6.47059,23.5295 c 9.01961,0 18.03921,0 27.05882,0 0,-7.8431 0,-15.6863 0,-23.5294 -9.01961,0 -18.03921,0 -27.05882,0 0,7.8431 0,15.6863 0,23.5294 z"
             id="rect64-17"
             inkscape:connector-curvature="0" />
        </g>
        <path
           inkscape:connector-curvature="0"
           id="rect64-17-3"
           d="m 640.55327,961.45014 c 4.22495,1.0484 12.70361,-2.1568 14.11764,1.7025 -0.61095,4.5955 1.19611,11.609 -0.85127,14.768 -3.99174,-1.2817 -13.37062,2.8238 -13.26637,-2.5538 0,-4.6389 0,-9.2778 0,-13.9167 z m -6.47059,-23.5295 c 9.01961,0 18.03921,0 27.05882,0 0,7.8431 0,15.6863 0,23.5294 -9.01961,0 -18.03921,0 -27.05882,0 0,-7.8431 0,-15.6863 0,-23.5294 z m -59.64455,23.5295 c 4.22495,1.0484 12.70361,-2.1568 14.11764,1.7025 -0.61095,4.5955 1.19611,11.609 -0.85127,14.768 -3.99174,-1.2817 -13.37062,2.8238 -13.26637,-2.5538 0,-4.6389 0,-9.2778 0,-13.9167 z m -6.47059,-23.5295 c 9.01961,0 18.03921,0 27.05882,0 0,7.8431 0,15.6863 0,23.5294 -9.01961,0 -18.03921,0 -27.05882,0 0,-7.8431 0,-15.6863 0,-23.5294 z m -59.64451,23.5295 c 4.22495,1.0484 12.70361,-2.1568 14.11764,1.7025 -0.61095,4.5955 1.19611,11.609 -0.85127,14.768 -3.99174,-1.2817 -13.37062,2.8238 -13.26637,-2.5538 0,-4.6389 0,-9.2778 0,-13.9167 z m -6.47059,-23.5295 c 9.01961,0 18.03921,0 27.05882,0 0,7.8431 0,15.6863 0,23.5294 -9.01961,0 -18.03921,0 -27.05882,0 0,-7.8431 0,-15.6863 0,-23.5294 z m -59.64464,23.5295 c 4.22495,1.0484 12.70361,-2.1568 14.11764,1.7025 -0.61095,4.5955 1.19611,11.609 -0.85127,14.768 -3.99174,-1.2817 -13.37062,2.8238 -13.26637,-2.5538 0,-4.6389 0,-9.2778 0,-13.9167 z m -6.47059,-23.5295 c 9.01961,0 18.03921,0 27.05882,0 0,7.8431 0,15.6863 0,23.5294 -9.01961,0 -18.03921,0 -27.05882,0 0,-7.8431 0,-15.6863 0,-23.5294 z m -59.64456,23.5295 c 4.22495,1.0484 12.70361,-2.1568 14.11764,1.7025 -0.61095,4.5955 1.19611,11.609 -0.85127,14.768 -3.99174,-1.2817 -13.37062,2.8238 -13.26637,-2.5538 0,-4.6389 0,-9.2778 0,-13.9167 z m -6.47059,-23.5295 c 9.01961,0 18.03921,0 27.05882,0 0,7.8431 0,15.6863 0,23.5294 -9.01961,0 -18.03921,0 -27.05882,0 0,-7.8431 0,-15.6863 0,-23.5294 z m -59.64459,23.5295 c 4.22495,1.0484 12.70361,-2.1568 14.11764,1.7025 -0.61095,4.5955 1.19611,11.609 -0.85127,14.768 -3.99174,-1.2817 -13.37062,2.8238 -13.26637,-2.5538 0,-4.6389 0,-9.2778 0,-13.9167 z m -6.47059,-23.5295 c 9.01961,0 18.03921,0 27.05882,0 0,7.8431 0,15.6863 0,23.5294 -9.01961,0 -18.03921,0 -27.05882,0 0,-7.8431 0,-15.6863 0,-23.5294 z m -59.64458,23.5295 c 4.22495,1.0484 12.70361,-2.1568 14.11764,1.7025 -0.61095,4.5955 1.19611,11.609 -0.85127,14.768 -3.99174,-1.2817 -13.37062,2.8238 -13.26637,-2.5538 0,-4.6389 0,-9.2778 0,-13.9167 z m -6.47059,-23.5295 c 9.01961,0 18.03921,0 27.05882,0 0,7.8431 0,15.6863 0,23.5294 -9.01961,0 -18.03921,0 -27.05882,0 0,-7.8431 0,-15.6863 0,-23.5294 z"
           style="fill:#b3b3b3;fill-opacity:1;stroke-width:0.68599439" />
      </g>
      <g
         aria-label="ASSEMBLY"
         style="font-style:normal;font-variant:normal;font-weight:normal;font-stretch:normal;font-size:96px;line-height:1.25;font-family:Impact;-inkscape-font-specification:Impact;letter-spacing:6px;word-spacing:0px;fill:#6c63ff;fill-opacity:1;stroke:none"
         id="text57-6"
         transform="rotate(0.00142416,12533048,2194549.7)">
        <path
           id="path134"
           d="m 708.76709,1234.6361 -14.39063,48.4219 v 27.4687 h -18.28125 v -27.4687 l -13.875,-48.4219 h 18.14063 q 4.26562,22.1719 4.78125,29.8594 1.64062,-12.1406 5.48437,-29.8594 z m -58.6875,0 v 60.7031 h 12 v 15.1875 h -31.73438 v -75.8906 z m -78.79688,0 c 8.68112,0.073 17.37016,-0.1799 26.04419,0.2043 5.38361,0.3261 11.40177,1.402 14.76636,6.0887 3.739,4.8841 3.75397,11.4266 3.6692,17.298 -0.11157,3.5577 -1.06546,7.7519 -4.64314,9.3632 -1.28308,1.0139 -5.11764,1.5973 -5.19443,2.0664 4.46249,0.9527 9.2262,3.4654 10.34317,8.2699 1.4669,5.2705 0.81124,10.7946 0.93649,16.194 -0.1658,4.9683 -0.61019,10.9445 -5.14736,13.9683 -4.12237,2.4434 -9.15314,2.0791 -13.76495,2.39 -9.00252,0.099 -18.00641,0.025 -27.00953,0.048 0,-25.2969 0,-50.5937 0,-75.8906 z m 19.73438,12.9844 c 0,5.625 0,11.25 0,16.875 3.25656,0.5849 6.93632,-0.8793 6.31622,-4.764 0.0132,-3.4794 0.75671,-7.2875 -0.85821,-10.5203 -1.11115,-1.8497 -3.63928,-1.4272 -5.45801,-1.5907 z m 0,28.6875 c 0,7.0781 0,14.1563 0,21.2344 2.91328,0.1728 6.69736,-0.8827 6.35431,-4.5412 0.1574,-4.3743 0.23009,-8.7777 -0.0829,-13.145 0.13534,-3.5313 -3.80659,-3.3967 -6.27136,-3.5482 z m -33.65625,-41.6719 c 0,25.2969 0,50.5937 0,75.8906 -5.75,0 -11.5,0 -17.25,0 0,-17.0781 0,-34.1562 0,-51.2343 -2.29688,17.0781 -4.59375,34.1562 -6.89063,51.2343 -4.07812,0 -8.15625,0 -12.23437,0 -2.42188,-16.6875 -4.84375,-33.375 -7.26563,-50.0625 0,16.6875 0,33.375 0,50.0625 -5.75,0 -11.5,0 -17.25,0 0,-25.2969 0,-50.5937 0,-75.8906 8.51563,0 17.03125,0 25.54688,0 1.88558,11.7853 3.40584,23.6251 5.10937,35.4375 1.5,-11.8125 3,-23.625 4.5,-35.4375 8.57813,0 17.15625,0 25.73438,0 z m -106.82813,0 c 10.96875,0 21.9375,0 32.90625,0 0,5.0625 0,10.125 0,15.1875 -4.39062,0 -8.78125,0 -13.17187,0 0,4.7969 0,9.5937 0,14.3906 4.10937,0 8.21875,0 12.32812,0 0,4.8125 0,9.625 0,14.4375 -4.10937,0 -8.21875,0 -12.32812,0 0,5.5625 0,11.125 0,16.6875 4.82812,0 9.65625,0 14.48437,0 0,5.0625 0,10.125 0,15.1875 -11.40625,0 -22.8125,0 -34.21875,0 0,-25.2969 0,-50.5937 0,-75.8906 z m -13.875,22.9688 c -6.10937,0 -12.21875,0 -18.32812,0 -0.12749,-3.4406 0.36545,-6.97 -0.53833,-10.3265 -1.75865,-3.0435 -6.30232,-0.6939 -5.99268,2.4632 -0.35331,3.5604 -0.19465,7.9781 3.15546,10.1369 6.61822,4.5839 14.18216,8.1611 19.4566,14.4322 3.86828,5.3782 3.88297,12.4166 3.85767,18.7705 -0.13835,5.1911 -0.94626,11.1824 -5.6272,14.3211 -7.08161,5.109 -16.56599,5.6592 -24.83088,3.6606 -5.95239,-1.5515 -11.95435,-5.689 -13.02068,-12.1465 -1.16941,-5.1081 -0.95452,-10.3744 -0.97559,-15.5772 6.10938,0 12.21875,0 18.32813,0 0.0974,4.4576 -0.24517,8.9436 0.29297,13.3762 0.30415,3.4626 5.846,3.3317 6.55957,0.1473 0.95879,-3.6219 0.67746,-7.6218 -0.47461,-11.1709 -1.71598,-3.0851 -5.1442,-4.6848 -7.86827,-6.7706 -4.43498,-3.109 -9.2939,-5.7827 -13.06142,-9.7265 -4.92033,-5.9785 -4.79411,-14.2663 -3.96405,-21.5559 0.42776,-4.6885 2.99294,-9.1702 7.23248,-11.3932 6.79442,-3.7687 15.05091,-3.84 22.47986,-2.2328 5.22562,1.3285 11.03965,4.2838 12.31714,10.0013 1.10374,4.4378 0.99587,9.0507 1.00195,13.5908 z m -55.6875,0 c -6.10937,0 -12.21875,0 -18.32812,0 -0.12749,-3.4406 0.36545,-6.97 -0.53833,-10.3265 -1.75865,-3.0435 -6.30232,-0.6939 -5.99268,2.4632 -0.35331,3.5604 -0.19465,7.9781 3.15546,10.1369 6.61822,4.5839 14.18216,8.1611 19.4566,14.4322 3.86828,5.3782 3.88297,12.4166 3.85767,18.7705 -0.13835,5.1911 -0.94626,11.1824 -5.6272,14.3211 -7.08161,5.109 -16.56599,5.6592 -24.83088,3.6606 -5.95239,-1.5515 -11.95435,-5.689 -13.02068,-12.1465 -1.16941,-5.1081 -0.95452,-10.3744 -0.97559,-15.5772 6.10938,0 12.21875,0 18.32813,0 0.0974,4.4576 -0.24517,8.9436 0.29297,13.3762 0.30415,3.4626 5.846,3.3317 6.55957,0.1473 0.95879,-3.6219 0.67746,-7.6218 -0.47461,-11.1709 -1.71598,-3.0851 -5.1442,-4.6848 -7.86827,-6.7706 -4.43498,-3.109 -9.2939,-5.7827 -13.06142,-9.7265 -4.92033,-5.9785 -4.79411,-14.2663 -3.96405,-21.5559 0.42776,-4.6885 2.99294,-9.1702 7.23248,-11.3932 6.79442,-3.7687 15.05091,-3.84 22.47986,-2.2328 5.22562,1.3285 11.03965,4.2838 12.31714,10.0013 1.10374,4.4378 0.99587,9.0507 1.00195,13.5908 z m -62.48437,-22.9688 c 3.76562,25.2969 7.53125,50.5937 11.29687,75.8906 -6.73437,0 -13.46875,0 -20.20312,0 -0.32813,-4.5469 -0.65625,-9.0937 -0.98438,-13.6406 -2.35937,0 -4.71875,0 -7.07812,0 -0.39063,4.5469 -0.78125,9.0937 -1.17188,13.6406 -6.8125,0 -13.625,0 -20.4375,0 3.34375,-25.2969 6.6875,-50.5937 10.03125,-75.8906 9.51563,0 19.03125,0 28.54688,0 z m -10.45313,48.7969 c -1.22325,-10.5869 -2.15238,-21.2053 -3,-31.8281 -1.42805,10.5863 -2.89174,21.177 -3.75,31.8281 2.25,0 4.5,0 6.75,0 z"
           inkscape:connector-curvature="0" />
      </g>
    </g>
  </g>
</svg>
