<?xml version="1.0" encoding="UTF-8" standalone="no"?>
<svg
   xmlns:dc="http://purl.org/dc/elements/1.1/"
   xmlns:cc="http://creativecommons.org/ns#"
   xmlns:rdf="http://www.w3.org/1999/02/22-rdf-syntax-ns#"
   xmlns:svg="http://www.w3.org/2000/svg"
   xmlns="http://www.w3.org/2000/svg"
   xmlns:sodipodi="http://sodipodi.sourceforge.net/DTD/sodipodi-0.dtd"
   xmlns:inkscape="http://www.inkscape.org/namespaces/inkscape"
   id="b52d7e2d-d80f-4111-b6ed-d15502ee1edd"
   data-name="Layer 1"
   width="710"
   height="670"
   viewBox="0 0 709.99997 670"
   version="1.1"
   sodipodi:docname="proud.svg"
   inkscape:version="0.92.2 (5c3e80d, 2017-08-06)">
  <metadata
     id="metadata106">
    <rdf:RDF>
      <cc:Work
         rdf:about="">
        <dc:format>image/svg+xml</dc:format>
        <dc:type
           rdf:resource="http://purl.org/dc/dcmitype/StillImage" />
        <dc:title>feeling_proud</dc:title>
      </cc:Work>
    </rdf:RDF>
  </metadata>
  <defs
     id="defs104" />
  <sodipodi:namedview
     pagecolor="#ffffff"
     bordercolor="#666666"
     borderopacity="1"
     objecttolerance="10"
     gridtolerance="10"
     guidetolerance="10"
     inkscape:pageopacity="0"
     inkscape:pageshadow="2"
     inkscape:window-width="1366"
     inkscape:window-height="745"
     id="namedview102"
     showgrid="false"
     inkscape:zoom="0.85970149"
     inkscape:cx="355"
     inkscape:cy="335"
     inkscape:window-x="-8"
     inkscape:window-y="-8"
     inkscape:window-maximized="1"
     inkscape:current-layer="b52d7e2d-d80f-4111-b6ed-d15502ee1edd"
     inkscape:snap-grids="true"
     inkscape:snap-to-guides="true" />
  <title
     id="title2">feeling_proud</title>
  <polygon
     points="671.722,619.279 674.189,380.018 516.326,380.018 516.326,565.013 547.27,615.443 549.625,619.279 "
     id="polygon4"
     style="fill:#e6e6e6"
     transform="translate(0,0.31732178)" />
  <polygon
     points="516.326,380.018 516.326,565.013 547.27,615.443 549.169,380.018 "
     id="polygon6"
     style="opacity:0.1"
     transform="translate(0,0.31732178)" />
  <polygon
     points="66.17,614.345 63.703,375.084 221.566,375.084 221.566,560.08 190.622,610.51 188.267,614.345 "
     id="polygon8"
     style="fill:#e6e6e6"
     transform="translate(0,0.31732178)" />
  <polygon
     points="221.566,375.084 221.566,560.08 190.622,610.51 188.723,375.084 "
     id="polygon10"
     style="opacity:0.1"
     transform="translate(0,0.31732178)" />
  <polygon
     points="109.335,334.385 656.923,334.385 711.188,371.385 711.188,382.484 47.67,382.484 47.67,366.451 "
     id="polygon12"
     style="fill:#e6e6e6"
     transform="translate(0,0.31732178)" />
  <polygon
     points="711.188,371.385 711.188,382.484 47.67,382.484 47.67,366.451 "
     id="polygon14"
     style="opacity:0.1"
     transform="translate(0,0.31732178)" />
  <polygon
     points="142.635,426.883 113.035,426.883 100.702,418.25 156.201,418.25 "
     id="polygon16"
     style="fill:#3f3d56"
     transform="translate(0,0.31732178)" />
  <polygon
     points="142.635,462.649 113.035,462.649 100.702,454.016 156.201,454.016 "
     id="polygon18"
     style="fill:#3f3d56"
     transform="translate(0,0.31732178)" />
  <polygon
     points="142.635,513.215 113.035,513.215 100.702,504.581 156.201,504.581 "
     id="polygon20"
     style="fill:#3f3d56"
     transform="translate(0,0.31732178)" />
  <polygon
     points="142.635,563.78 113.035,563.78 100.702,555.147 156.201,555.147 "
     id="polygon22"
     style="fill:#3f3d56"
     transform="translate(0,0.31732178)" />
  <polygon
     points="595.257,431.816 624.857,431.816 637.19,423.183 581.691,423.183 "
     id="polygon24"
     style="fill:#3f3d56"
     transform="translate(0,0.31732178)" />
  <polygon
     points="595.257,467.582 624.857,467.582 637.19,458.949 581.691,458.949 "
     id="polygon26"
     style="fill:#3f3d56"
     transform="translate(0,0.31732178)" />
  <polygon
     points="595.257,518.148 624.857,518.148 637.19,509.515 581.691,509.515 "
     id="polygon28"
     style="fill:#3f3d56"
     transform="translate(0,0.31732178)" />
  <polygon
     points="595.257,568.713 624.857,568.713 637.19,560.08 581.691,560.08 "
     id="polygon30"
     style="fill:#3f3d56"
     transform="translate(0,0.31732178)" />
  <path
     d="M 615.41384,120.77359 H 366.22841 a 9.4227,9.4227 0 0 0 -9.42389,9.42389 v 167.85773 a 9.4227,9.4227 0 0 0 9.42389,9.42388 h 94.5929 l -3.54389,22.62623 c 0,0 -20.25281,10.75927 -6.01251,11.07574 14.2403,0.31647 81.32764,0 81.32764,0 0,0 12.97448,0 -7.59479,-11.39221 l -3.33362,-22.30976 h 93.7497 a 9.42266,9.42266 0 0 0 9.42388,-9.42388 V 130.19748 a 9.42266,9.42266 0 0 0 -9.42388,-9.42389 z"
     id="path32"
     inkscape:connector-curvature="0"
     style="fill:#3f3d56" />
  <rect
     x="365.82336"
     y="136.55499"
     width="249.99557"
     height="139.87094"
     id="rect34"
     style="fill:#f2f2f2" />
  <circle
     cx="490.82114"
     cy="126.31147"
     r="1.58225"
     id="circle36"
     style="fill:#f2f2f2" />
  <circle
     cx="490.82114"
     cy="294.6629"
     r="6.0125499"
     id="circle38"
     style="fill:#f2f2f2" />
  <polygon
     points="311.436,357.952 315.632,346.56 477.971,346.56 481.452,357.952 481.452,361.117 311.202,361.117 311.202,358.585 "
     id="polygon40"
     style="fill:#3f3d56"
     transform="translate(0,0.31732178)" />
  <path
     d="m 546.96953,355.17132 c -0.31011,1.3259 -1.481,2.72467 -4.1265,4.04741 -9.4935,4.74675 -28.797,-1.2658 -28.797,-1.2658 0,0 -14.87315,-2.53161 -14.87315,-9.17706 a 11.86592,11.86592 0 0 1 1.30377,-0.77528 c 3.99133,-2.11163 17.2253,-7.32222 40.69051,0.22062 a 9.78618,9.78618 0 0 1 4.46035,2.923 4.667,4.667 0 0 1 1.34202,4.02711 z"
     id="path42"
     inkscape:connector-curvature="0"
     style="fill:#3f3d56" />
  <path
     d="m 546.96953,355.17132 c -11.62,4.45247 -21.97744,4.78472 -32.607,-2.59805 a 23.34328,23.34328 0 0 0 -13.88583,-4.57268 c 3.99133,-2.11163 17.2253,-7.32222 40.69051,0.22062 a 9.78618,9.78618 0 0 1 4.46035,2.923 4.667,4.667 0 0 1 1.34197,4.02711 z"
     id="path44"
     inkscape:connector-curvature="0"
     style="opacity:0.1" />
  <ellipse
     cx="532.40015"
     cy="351.3075"
     rx="4.1138501"
     ry="1.2658"
     id="ellipse46"
     style="fill:#f2f2f2" />
  <polygon
     points="311.436,357.952 481.452,357.952 481.452,361.117 311.202,361.117 311.202,358.585 "
     id="polygon48"
     style="opacity:0.1"
     transform="translate(0,0.31732178)" />
  <path
     d="M 94.66146,0.31747178 A 8.55394,8.55394 0 0 0 89.7002,1.4257718 c -1.476,1.0108 -2.40629,2.78162 -3.35588,4.42947 A 52.98576,52.98576 0 0 1 71.91004,22.159882 c -4.28894,3.142 -9.74169,7.05966 -9.00789,12.85269 a 17.37163,17.37163 0 0 0 2.09058,5.4255 c 3.9566,7.987 14.75357,14.15926 13.69156,23.27309 3.931,-6.58092 -1.327,-9.835 2.604,-16.41586 1.87205,-3.134 5.12412,-6.67168 7.95054,-4.70353 0.94637,0.659 1.56777,1.84095 2.55314,2.41917 2.35122,1.37972 4.85259,-1.258 6.93387,-3.12633 7.17685,-6.44263 17.383,-4.7548 26.31387,-2.74743 4.21624,0.94767 8.8473,2.191 11.33971,6.2207 3.277,5.29821 -3.11344,11.02034 -4.72807,17.01049 a 3.264,3.264 0 0 0 3.50293,4.06214 c 2.67975,-0.26434 5.8542,-0.481 6.01278,-1.65694 3.37154,0.12 7.50269,-0.26181 8.94728,-3.7725 a 14.76216,14.76216 0 0 0 0.69252,-4.29319 c 0.5302,-5.89718 3.0331,-11.27719 4.69119,-16.88993 1.65809,-5.61274 2.37906,-12.1905 -0.41909,-17.1668 a 19.86362,19.86362 0 0 0 -3.666,-4.45557 C 135.53395,2.8288318 114.65654,0.29466178 94.66146,0.31747178 Z"
     id="path50"
     inkscape:connector-curvature="0"
     style="fill:#2f2e41" />
  <path
     d="m 82.1377,75.222522 c 0,0 3.4534,28.778398 -9.20909,31.080678 -12.66249,2.30228 11.51136,41.4409 11.51136,41.4409 l 57.55681,6.90682 -13.81364,-46.04545 c 0,0 -9.20909,-3.45341 -3.4534,-26.476128 5.75569,-23.02272 -42.59204,-6.90682 -42.59204,-6.90682 z"
     id="path52"
     inkscape:connector-curvature="0"
     style="fill:#ffb8b8" />
  <polygon
     points="47.028,569.318 51.633,632.631 75.806,632.631 68.9,569.318 "
     id="polygon54"
     style="fill:#ffb8b8"
     transform="translate(0,0.31732178)" />
  <polygon
     points="224.303,449.6 227.756,502.552 254.233,491.041 243.872,447.298 "
     id="polygon56"
     style="fill:#ffb8b8"
     transform="translate(0,0.31732178)" />
  <path
     d="m 29.761,327.89692 c 0,0 1.15113,66.7659 8.058,88.63749 6.90687,21.87159 5.75568,23.02272 4.60455,26.47613 -1.15113,3.45341 -2.30228,1.15114 -2.30228,6.90682 0,5.75568 -2.30227,96.69544 0,104.7534 2.30227,8.05796 -6.90681,21.87159 0,23.02272 6.90681,1.15113 39.13863,0 40.28977,-6.90682 1.15114,-6.90682 -9.20909,-9.20909 -4.60454,-13.81363 4.60455,-4.60454 11.51136,-98.99772 11.51136,-98.99772 l 16.11591,-65.61476 29.92954,-34.53409 h 63.31244 l 19.56932,75.975 c 0,0 -8.058,21.87159 -2.30228,21.87159 5.75572,0 40.28977,6.90682 40.28977,-18.41818 0,-25.325 -11.51136,-100.14886 -13.81361,-102.45113 -2.30225,-2.30227 1.15113,-10.36023 -2.30228,-13.81364 -3.45341,-3.45341 -43.74317,-27.62727 -58.70794,-32.23181 -14.96477,-4.60454 -35.95778,-10.08487 -35.95778,-10.08487 z"
     id="path58"
     inkscape:connector-curvature="0"
     style="fill:#2f2e41" />
  <path
     d="m 254.23256,482.14917 c 0,0 -17.267,-5.75568 -25.325,11.51137 -8.058,17.26705 -4.60454,21.87159 -4.60454,21.87159 0,0 26.47613,9.20909 31.08068,4.60454 2.00333,-2.00334 8.36471,-2.69926 14.91273,-2.84621 9.97289,-0.22381 12.62625,-14.33323 3.20748,-17.61885 q -0.42145,-0.147 -0.85317,-0.25539 c -9.20909,-2.30227 -18.41818,-17.26705 -18.41818,-17.26705 z"
     id="path60"
     inkscape:connector-curvature="0"
     style="fill:#2f2e41" />
  <circle
     cx="108.03826"
     cy="59.682182"
     r="34.534088"
     id="circle62"
     style="fill:#ffb8b8" />
  <path
     d="m 63.14395,120.6924 c 0,0 56.40567,11.51136 70.21931,-6.90682 13.81364,-18.418178 19.56931,51.80113 19.56931,51.80113 l 6.90682,73.67272 -10.36023,40.28977 c 0,0 -54.1034,43.74318 -71.37044,47.19658 -17.26704,3.4534 -43.74318,5.75569 -43.74318,5.75569 0,0 8.058,-127.77613 8.058,-130.0784 0,-2.30227 20.72041,-81.73067 20.72041,-81.73067 z"
     id="path64"
     inkscape:connector-curvature="0"
     style="fill:#6c63ff" />
  <path
     d="m 80.29828,99.103222 c 0,0 -12.54979,-7.18923 -16.0032,-0.28241 -3.45341,6.906818 -35.68522,24.173848 -39.13863,24.173848 -3.45341,0 6.90682,95.54431 2.30227,107.05567 -4.60455,11.51136 -26.47613,95.54433 -13.81363,102.45114 12.6625,6.90681 3.45341,-6.90682 16.11591,10.36022 12.6625,17.26704 74.82385,17.267 78.27726,10.36023 3.45341,-6.90677 -27.62727,-58.708 -21.87159,-107.05567 5.75568,-48.34767 14.96477,-115.11362 6.90682,-124.32271 C 85.01554,112.63445 80.29828,99.103222 80.29828,99.103222 Z"
     id="path66"
     inkscape:connector-curvature="0"
     style="fill:#2f2e41" />
  <path
     d="m 121.85195,106.87876 1.60341,-5.518 c 0,0 47.89544,15.87824 50.19772,26.23847 2.30228,10.36023 1.15113,82.88181 -6.90682,88.63749 -8.05795,5.75568 -19.56932,14.96477 -11.51136,28.7784 8.05796,13.81363 17.267,28.77841 24.17386,29.92954 6.90686,1.15113 19.56931,9.20909 16.1159,17.267 -3.45341,8.05791 -44.89431,-6.90682 -44.89431,-6.90682 0,0 -27.62727,-20.72045 -26.47613,-52.95227 1.15114,-32.23182 -2.30227,-125.47381 -2.30227,-125.47381 z"
     id="path68"
     inkscape:connector-curvature="0"
     style="fill:#2f2e41" />
  <path
     d="m 162.14166,242.71284 -27.62727,51.80113 c 0,0 -40.28976,41.4409 -17.267,46.04545 23.02276,4.60455 35.68522,-37.9875 35.68522,-37.9875 l 29.92955,-42.592 z"
     id="path70"
     inkscape:connector-curvature="0"
     style="fill:#ffb8b8" />
  <path
     d="m 96.34376,9.3532318 a 7.83806,7.83806 0 0 0 -4.03868,0.7833402 9.41322,9.41322 0 0 0 -2.73182,3.13072 39.77267,39.77267 0 0 1 -11.7501,11.524 c -3.49138,2.22077 -7.93014,4.98972 -7.3328,9.0842 a 11.35949,11.35949 0 0 0 1.70182,3.8347 30.16344,30.16344 0 0 1 3.66519,18.80068 l 9.60011,-13.954 c 1.52393,-2.21507 4.17125,-4.7155 6.47207,-3.32442 0.77039,0.46577 1.27623,1.30117 2.07836,1.70985 1.914,0.97518 3.95021,-0.88912 5.64447,-2.20967 5.84225,-4.55361 14.15049,-3.36066 21.42059,-1.94187 3.43219,0.66981 7.20207,1.54859 9.231,4.39676 3.37169,4.73311 -0.149,11.5721 1.81882,17.04 a 5.02339,5.02339 0 0 0 2.07852,-3.31717 c 2.74457,0.0848 6.1075,-0.185 7.28345,-2.66638 a 9.18757,9.18757 0 0 0 0.56374,-3.03439 c 0.43161,-4.16809 2.46907,-7.97065 3.81883,-11.93769 1.34976,-3.96704 1.93666,-8.61616 -0.34116,-12.13338 a 14.68107,14.68107 0 0 0 -2.98426,-3.14917 C 129.61569,11.128242 112.62059,9.3371118 96.34376,9.3532318 Z"
     id="path72"
     inkscape:connector-curvature="0"
     style="fill:#2f2e41" />
  <path
     d="m 162.14166,122.99466 10.72528,2.84686 c 0,0 24.95995,63.919 19.20427,107.66222 -5.75568,43.74322 -9.20909,34.53409 -9.20909,34.53409 0,0 -9.20909,-20.72046 -29.92955,-16.11591 z"
     id="path74"
     inkscape:connector-curvature="0"
     style="fill:#2f2e41" />
  <path
     d="m 48.62289,624.58066 c -2.77592,3.77228 -2.21935,9.16459 -4.67828,13.15075 -2.13144,3.45526 -6.14837,5.26695 -8.81439,8.32869 a 22.32616,22.32616 0 0 0 -2.26617,3.25987 c -2.47311,4.14255 -4.4833,9.45174 -2.04761,13.61641 1.95936,3.35022 6.07786,4.65961 9.855,5.552 4.77407,1.128 9.73436,2.03071 14.56354,1.16876 4.82918,-0.86195 9.54882,-3.819 11.27067,-8.41239 a 32.50011,32.50011 0 0 1 1.2051,-3.4007 c 2.61747,-5.15294 10.82749,-5.20864 13.50628,-10.33 1.87466,-3.584 0.15138,-7.91623 -1.57118,-11.57578 l -5.26109,-11.1771 c -1.74592,-3.70919 -8.82362,-1.57608 -12.51339,-2.46492 -4.81224,-1.15915 -9.78658,-2.43633 -13.24848,2.28441 z"
     id="path76"
     inkscape:connector-curvature="0"
     style="fill:#2f2e41" />
  <path
     d="m 10.19168,265.73556 48.34772,74.82386 c 0,0 29.92954,37.98749 39.13863,20.72045 9.20909,-17.26704 -32.23181,-46.04545 -32.23181,-46.04545 L 34.36554,257.67766 Z"
     id="path78"
     inkscape:connector-curvature="0"
     style="fill:#ffb8b8" />
  <path
     d="m 34.36554,125.29694 -9.20909,-2.30228 c 0,0 -18.41818,5.75568 -23.02272,29.92954 -4.60454,24.17386 -1.15114,120.86931 4.60454,122.02044 5.75568,1.15113 28.42725,-16.83663 32.05624,-13.02286 3.62899,3.81377 -7.88238,-15.75554 -4.429,-26.11577 3.45338,-10.36023 3e-5,-110.50907 3e-5,-110.50907 z"
     id="path80"
     inkscape:connector-curvature="0"
     style="fill:#2f2e41" />
  <g
     id="g654"
     transform="translate(-113.79022,-787.88707)">
    <path
       inkscape:connector-curvature="0"
       id="b9a0b375-cc2a-4c59-8850-661af54e4f62-7-0-4"
       d="m 618.81573,961.53638 c 3.48947,0 6.97895,0 10.46842,0 -0.28678,2.23705 0.56532,5.61298 -0.40889,7.1626 -3.35318,0 -6.70635,0 -10.05953,0 0,-2.38753 0,-4.77507 0,-7.1626 z"
       style="fill:#6c63ff" />
    <path
       inkscape:connector-curvature="0"
       id="e174c2ab-9bc5-41ec-b37c-b06fbf8a9878-6-1-7"
       d="m 639.75256,961.53638 c 3.48947,0 6.97895,0 10.46842,0 -0.28678,2.23705 0.56532,5.61298 -0.40889,7.1626 -3.35318,0 -6.70635,0 -10.05953,0 0,-2.38753 0,-4.77507 0,-7.1626 z"
       style="fill:#6c63ff" />
    <path
       inkscape:connector-curvature="0"
       id="ba2479ac-4c7d-43b4-a028-73b1e20e4002-5-7-0"
       d="m 536.72125,961.53638 c 23.69169,0 47.38337,0 71.07506,0 -0.28678,2.23705 0.56532,5.61298 -0.40889,7.1626 -23.55539,0 -47.11078,0 -70.66617,0 0,-2.38753 0,-4.77507 0,-7.1626 z"
       style="fill:#6c63ff" />
    <path
       inkscape:connector-curvature="0"
       id="edfc7301-4de5-47dc-80e2-1ae2da982d6d-0-5-4"
       d="m 556.01447,1016.5682 c 9.91745,0 19.8349,0 29.75235,0 -0.28678,2.237 0.56532,5.613 -0.40889,7.1626 -9.78115,0 -19.56231,0 -29.34346,0 0,-2.3875 0,-4.7751 0,-7.1626 z"
       style="fill:#6c63ff" />
    <path
       inkscape:connector-curvature="0"
       id="e1009f91-6275-4375-80fa-0d778e331fdc-5-5-3"
       d="m 515.7937,1016.5682 c 9.91745,0 19.8349,0 29.75235,0 -0.28678,2.237 0.56532,5.613 -0.40889,7.1626 -9.78115,0 -19.56231,0 -29.34346,0 0,-2.3875 0,-4.7751 0,-7.1626 z"
       style="fill:#6c63ff" />
    <path
       inkscape:connector-curvature="0"
       id="e6ed1ccd-2cfd-450f-a339-07df3a1ee6bb-0-6-9"
       d="m 595.68427,1016.5682 c 23.69168,0 47.38337,0 71.07505,0 -0.28678,2.237 0.56532,5.613 -0.40889,7.1626 -23.55539,0 -47.11077,0 -70.66616,0 0,-2.3875 0,-4.7751 0,-7.1626 z"
       style="fill:#6c63ff" />
    <path
       inkscape:connector-curvature="0"
       id="e1009f91-6275-4375-80fa-0d778e331fdc-5-4-7-1"
       d="m 573.73883,998.35345 c 9.91745,0 19.8349,0 29.75235,0 -0.28678,2.23705 0.56531,5.61305 -0.40889,7.16265 -9.78115,0 -19.56231,0 -29.34346,0 0,-2.3876 0,-4.7751 0,-7.16265 z"
       style="fill:#6c63ff" />
    <path
       inkscape:connector-curvature="0"
       id="a060fb9f-1f1a-4862-9a69-16dd49199e18-7-8-9-2"
       d="m 551.6394,997.57837 c 3.48947,0 6.97895,0 10.46842,0 -0.28678,2.23706 0.56532,5.61303 -0.40889,7.16263 -3.35318,0 -6.70635,0 -10.05953,0 0,-2.3875 0,-4.77509 0,-7.16263 z"
       style="fill:#6c63ff" />
    <path
       inkscape:connector-curvature="0"
       id="edfc7301-4de5-47dc-80e2-1ae2da982d6d-0-1-8-8"
       d="m 536.72125,979.36359 c 9.91745,0 19.8349,0 29.75235,0 -0.28678,2.23705 0.56532,5.61298 -0.40889,7.1626 -9.78115,0 -19.56231,0 -29.34346,0 0,-2.38753 0,-4.77507 0,-7.1626 z"
       style="fill:#6c63ff" />
    <path
       inkscape:connector-curvature="0"
       id="b6754d5f-104f-449c-b9a9-cf9ac82bf5fe-9-7-1-0"
       d="m 657.93457,979.36359 c 3.48947,0 6.97895,0 10.46842,0 -0.28678,2.23705 0.56532,5.61298 -0.40889,7.1626 -3.35318,0 -6.70635,0 -10.05953,0 0,-2.38753 0,-4.77507 0,-7.1626 z"
       style="fill:#6c63ff" />
    <path
       inkscape:connector-curvature="0"
       id="e6ed1ccd-2cfd-450f-a339-07df3a1ee6bb-0-9-2-4"
       d="m 576.39105,979.36359 c 23.69169,0 47.38337,0 71.07506,0 -0.28678,2.23705 0.56532,5.61298 -0.40889,7.1626 -23.55539,0 -47.11078,0 -70.66617,0 0,-2.38753 0,-4.77507 0,-7.1626 z"
       style="fill:#6c63ff" />
    <path
       inkscape:connector-curvature="0"
       id="e1009f91-6275-4375-80fa-0d778e331fdc-5-4-2-7"
       d="m 536.73053,943.70923 c 9.91745,0 19.8349,0 29.75235,0 -0.28678,2.23705 0.56532,5.61298 -0.40889,7.1626 -9.78115,0 -19.56231,0 -29.34346,0 0,-2.38753 0,-4.77507 0,-7.1626 z"
       style="fill:#6c63ff" />
    <path
       inkscape:connector-curvature="0"
       id="a060fb9f-1f1a-4862-9a69-16dd49199e18-7-8-3-6"
       d="m 515.7937,943.70923 c 3.48947,0 6.97895,0 10.46842,0 -0.28678,2.23705 0.56532,5.61298 -0.40889,7.1626 -3.35318,0 -6.70635,0 -10.05953,0 0,-2.38753 0,-4.77507 0,-7.1626 z"
       style="fill:#6c63ff" />
    <path
       inkscape:connector-curvature="0"
       id="e6ed1ccd-2cfd-450f-a339-07df3a1ee6bb-0-9-0-5"
       d="m 579.4165,943.70923 c 23.69169,0 47.38337,0 71.07506,0 -0.28678,2.23705 0.56532,5.61298 -0.40889,7.1626 -23.55539,0 -47.11078,0 -70.66617,0 0,-2.38753 0,-4.77507 0,-7.1626 z"
       style="fill:#6c63ff" />
    <path
       inkscape:connector-curvature="0"
       id="e1009f91-6275-4375-80fa-0d778e331fdc-5-4-4-6"
       d="m 663.60321,943.70917 c 9.91745,0 19.8349,0 29.75235,0 -0.28678,2.23705 0.56532,5.61298 -0.40889,7.1626 -9.78115,0 -19.56231,0 -29.34346,0 0,-2.38753 0,-4.77507 0,-7.1626 z"
       style="fill:#6c63ff" />
    <path
       inkscape:connector-curvature="0"
       id="edfc7301-4de5-47dc-80e2-1ae2da982d6d-0-1-5-3"
       d="m 536.72125,1037.8833 c 9.91745,0 19.8349,0 29.75235,0 -0.28678,2.237 0.56532,5.613 -0.40889,7.1626 -9.78115,0 -19.56231,0 -29.34346,0 0,-2.3875 0,-4.7751 0,-7.1626 z"
       style="fill:#6c63ff" />
    <path
       inkscape:connector-curvature="0"
       id="b6754d5f-104f-449c-b9a9-cf9ac82bf5fe-9-7-8-8"
       d="m 657.93457,1037.8833 c 3.48947,0 6.97895,0 10.46842,0 -0.28678,2.237 0.56532,5.613 -0.40889,7.1626 -3.35318,0 -6.70635,0 -10.05953,0 0,-2.3875 0,-4.7751 0,-7.1626 z"
       style="fill:#6c63ff" />
    <path
       inkscape:connector-curvature="0"
       id="e6ed1ccd-2cfd-450f-a339-07df3a1ee6bb-0-9-1-0"
       d="m 576.39111,1037.8833 c 23.69169,0 47.38337,0 71.07506,0 -0.28678,2.237 0.56532,5.613 -0.40889,7.1626 -23.55539,0 -47.11078,0 -70.66617,0 0,-2.3875 0,-4.7751 0,-7.1626 z"
       style="fill:#6c63ff" />
  </g>
</svg>
