<svg data-name="Layer 1" version="1.1" viewBox="0 0 710 670" xmlns="http://www.w3.org/2000/svg"><rect id="e95f2213-9bcc-4eb0-8355-05af38a3eafb" x="4.8739" y="2.2624" width="397.43" height="208.68" fill="#f2f2f2" data-name="Rectangle 246"/><rect x="4.6311" y="1.9399" width="397.43" height="24.191" fill="#e6e6e6" data-name="Rectangle 264"/><g fill="#fff"><rect id="e8d246b5-3278-4a22-b53c-870d78135d7d" x="13.861" y="35.94" width="381" height="164" data-name="Rectangle 247"/><circle id="af47f094-7758-4c77-9c4d-96df8007094d" cx="42.292" cy="13.974" r="4.0018" data-name="Ellipse 194"/><circle id="a9e4940e-a814-4d65-8cf9-dbeaebbe294d" cx="57.482" cy="13.974" r="4.0018" data-name="Ellipse 195"/><circle cx="27.062" cy="13.974" r="4.0018" data-name="Ellipse 246"/></g><g transform="translate(4.6311 1.9399)" fill="#f2f2f2" data-name="Group 31"><rect x="94.666" y="82.06" width="219.09" height="9.7644" data-name="Rectangle 250"/><rect id="a9c22b9d-d16d-4876-9a73-2e204591d63b" x="94.666" y="106.47" width="78.115" height="9.7644" data-name="Rectangle 251"/><rect id="a9cac377-a398-4b66-a887-af8e1ff2458e" x="94.666" y="130.88" width="155.62" height="9.7644" data-name="Rectangle 252"/></g><rect x="51.636" y="338.85" width="374" height="196.38" fill="#f2f2f2" data-name="Rectangle 246"/><rect x="51.407" y="338.55" width="374" height="22.766" fill="#e6e6e6" data-name="Rectangle 264"/><g fill="#fff"><rect x="59.522" y="369.23" width="359.12" height="156" data-name="Rectangle 247"/><circle cx="86.848" cy="349.88" r="3.7659" data-name="Ellipse 194"/><circle cx="101.14" cy="349.88" r="3.7659" data-name="Ellipse 195"/><circle id="adf412b1-46d6-41c6-a8e7-cb0dafcb21cb" cx="72.516" cy="349.88" r="3.7659" data-name="Ellipse 246"/></g><rect id="bb724a05-1311-47ea-a197-dba61202444a" x="146.77" y="154.38" width="443.63" height="232.94" fill="#e6e6e6" data-name="Rectangle 246"/><rect x="146.5" y="154.02" width="443.63" height="27.004" fill="#6c63ff" data-name="Rectangle 264"/><g fill="#fff"><rect x="156.73" y="189.32" width="423" height="185" data-name="Rectangle 247"/><circle cx="316.67" cy="101.07" r="4.467" data-name="Ellipse 194"/><circle cx="333.63" cy="101.07" r="4.467" data-name="Ellipse 195"/><circle cx="299.67" cy="101.07" r="4.467" data-name="Ellipse 246"/></g><g transform="translate(-123.5 68.32)" fill="#e6e6e6" data-name="Group 31"><rect x="329.79" y="168.64" width="324.33" height="14.455" data-name="Rectangle 250"/><rect x="329.79" y="204.77" width="115.64" height="14.455" data-name="Rectangle 251"/><rect id="b3127a43-0306-472e-b694-e809c29e74cb" x="329.79" y="240.91" width="230.38" height="14.455" data-name="Rectangle 252"/></g><g id="b98a0618-17e9-4407-b210-398d3f3d6a2f" transform="translate(-38.593 65.232)" fill="#f2f2f2" data-name="Group 31"><rect id="f815513a-42d1-48f0-8051-0e3f5098eb8b" x="163.67" y="350.3" width="244.56" height="10.9" data-name="Rectangle 250"/><rect x="163.67" y="377.55" width="87.196" height="10.9" data-name="Rectangle 251"/><rect x="163.67" y="404.8" width="173.71" height="10.9" data-name="Rectangle 252"/></g><polygon transform="matrix(1.1132 0 0 1.0757 -169.87 64.788)" points="481.49 100.77 503.73 92.924 502.34 89.215" fill="#fff"/><ellipse transform="matrix(.95411 -.29946 .31862 .94788 0 0)" cx="323.91" cy="272.17" rx="6.4551" ry="12.649" fill="#3f3d56" stroke-width="1.0944"/><polygon transform="matrix(1.1132 0 0 1.0757 -169.87 64.788)" points="526.23 85.817 512.84 94.858 509.46 82.667 523.29 77.675" fill="#3f3d56"/><g fill="#a0616a"><path d="m408.82 158.01a14.995 14.489 0 0 0 21.021 9.0021l37.87 36.223 5.4283-26.238-36.795-30.376a15.076 14.568 0 0 0-27.525 11.388z" stroke-width="1.0943"/><path d="m697.41 386.55a14.995 14.489 0 0 0-3.5229-21.955l11.072-50.366-25.779 9.7675-6.562 46.331a15.076 14.568 0 0 0 24.792 16.223z" stroke-width="1.0943"/><polygon transform="matrix(1.1132 0 0 1.0757 -169.87 64.788)" points="642.8 479.81 667.03 479.81 667.03 543.16 650.61 543.16"/></g><path d="m577.32 666.07-58.946-2e-3v-0.71645a22.943 22.047 0 0 1 22.944-22.047h1e-3l36.002 1e-3z" fill="#2f2e41" stroke-width="1.0912"/><polygon transform="matrix(1.1132 0 0 1.0757 -169.87 64.788)" points="723.17 479.81 747.41 479.81 747.4 543.16 730.98 543.16" fill="#a0616a"/><path d="m666.79 666.07-58.946-2e-3v-0.71645a22.943 22.047 0 0 1 22.944-22.047h1e-3l36.002 1e-3z" fill="#2f2e41" stroke-width="1.0912"/><path d="m574.56 613.46-25.879-1.0005a6.7313 6.5044 0 0 1-6.4386-6.6768l7.2909-231.09 0.47617-0.16604c45.355-15.854 82.876-14.655 114.71 3.6599l0.356 0.20546 4.3676 225.07a6.7096 6.4834 0 0 1-6.7091 6.6065h-21.822a6.725 6.4984 0 0 1-6.5846-5.2331l-29.726-146.12a2.2364 2.161 0 0 0-4.4149 0.1576l-18.696 148.89a6.7483 6.5208 0 0 1-6.6643 5.7017c-0.0877 0-0.17657-1e-3 -0.26499-4e-3z" fill="#2f2e41" stroke-width="1.0943"/><ellipse transform="matrix(.88422 -.46707 .49239 .87037 0 0)" cx="454.9" cy="401.11" rx="36.344" ry="35.678" fill="#a0616a" stroke-width="1.0945"/><g fill="#3f3d56" stroke-width="1.0943"><path d="m437.02 171.85a6.7186 6.4922 0 0 1 2.7194-2.8407l11.045-6.1284a6.7321 6.5052 0 0 1 7.6786 0.67618l36.698 30.042 84.348 22.851a21.617 20.888 0 1 1-18.383 37.811l-53.88-11.721a69.15 66.819 0 0 1-40.691-25.815l-28.895-38.271a6.7176 6.4912 0 0 1-1.1423-5.1704 6.6428 6.419 0 0 1 0.50274-1.4338z"/><path d="m695.85 353.94a6.7186 6.4921 0 0 1-4.0009 0.16701l-12.309-3.1627a6.7321 6.5052 0 0 1-4.9599-5.7043l-4.1699-46.301-43.246-73.614a21.617 20.888 0 1 1 40.605-14.343l29.721 44.981a69.15 66.82 0 0 1 10.085 46.016l-7.3674 46.836a6.7176 6.4912 0 0 1-2.9562 4.4487 6.6431 6.4193 0 0 1-1.4018 0.67612z"/><path d="m559.68 199.49a62.364 60.262 0 0 1 50.009-19.538q0.91851 0.0549 1.8297 0.12382h7.3e-4a62.232 60.135 0 0 1 44.973 23.986 63.168 61.039 0 0 1 11.221 49.199 197.37 190.72 0 0 0 5.2139 97.802l9.825 29.479a6.708 6.4819 0 0 1-6.0272 8.4611l-50.23 2.6096-12.854-21.455v22.122l-61.049 3.1716c-0.1216 7e-3 -0.24247 0.01-0.3626 0.01a6.7103 6.4841 0 0 1-6.6862-7.0047l6.9002-82.681-8.655-56.156a62.762 60.646 0 0 1 15.892-50.13z"/></g><path d="m625.19 170.43c-3.3909 1.8853-16.794 3.1353-17.749-0.53063l-0.0205-0.0805c-0.66469-2.686-0.11273-5.4908 0.078-8.2464 0.19076-2.7556-0.0884-5.7827-2.0306-7.8088-3.6205-3.7768-10.062-1.7747-15.297-2.7296a12.92 12.484 0 0 1-10.05-13.332c0.0746-0.57276 0.19147-1.1462 0.32258-1.7192a9.9503 9.6149 0 0 0-10.329-11.644c-5.2908 0.29234-11.002 1.8413-15.379-1.9454-3.3851-2.9282-4.211-10.551-2.7236-14.699 2.4995-6.9715 18.511-10.621 25.502-12.628a60.571 58.53 0 0 1 51.341 8.1404c4.4156 3.0075 8.5393 6.7864 10.421 11.68s0.97403 11.067-3.2698 14.297a27.336 26.415 0 0 1 6.3318 25.657c-2.0962 6.5265-12.1 12.784-17.147 15.59z" fill="#2f2e41" stroke-width="1.0943"/><path d="m699.96 667.06h-229.09a0.60129 1.0697 0 0 1 0-2.1394h229.09a0.60129 1.0697 0 0 1 0 2.1394z" fill="#3f3d56" stroke-width=".80199"/></svg>
