<svg data-name="Layer 1" version="1.1" viewBox="0 0 1015.1 526" xmlns="http://www.w3.org/2000/svg"><title>static_website</title><ellipse cx="289.6" cy="396.5" rx="284" ry="10.5" fill="#d0cde1"/><ellipse cx="794.13" cy="515.5" rx="221" ry="10.5" fill="#d0cde1"/><polygon points="82.034 366.09 79.876 390.56 97.146 389.12 97.146 368.25" fill="#ffb8b8"/><polygon points="66.203 366.09 68.362 390.56 51.092 389.12 51.092 368.25" fill="#ffb8b8"/><g fill="#2f2e41"><path transform="translate(-92.436 -187)" d="m203.97 365.28s5.7568 34.541 5.7568 39.578-2.1588 37.419-5.7568 43.896-4.3176 9.3548-2.8784 12.233 0.7196 2.1588 0 4.3176-2.1588 1.4392 0 4.3176a7.5606 7.5606 0 0 1 0 8.6352c-1.4392 2.1588 2.8784 60.446-2.8784 64.764s-7.196 18.71-7.196 18.71l-18.71-2.1588v-15.831s-4.3176-11.514-1.4392-18.71 4.3176-45.335 4.3176-45.335-0.7196-3.598 0-5.7568 0-3.598-1.4392-4.3176-2.1588-3.598-2.1588-3.598l-2.1588-52.531-8.6352 51.811s8.6352 70.521 0 79.876v16.551h-18.71l2.8784-17.99s-5.7568-16.551-2.8784-20.149-8.6352-61.166-7.196-63.325 0.7196-2.8784 0-4.3176-2.8784-2.8784-2.1588-4.3176 0-4.3176 0-4.3176-13.672-67.642-7.196-74.119 78.436-7.9156 78.436-7.9156z"/><path transform="translate(-92.436 -187)" d="m176.63 568.2s1.4392-6.9014 12.953-4.5301c0 0 2.8784 5.9693 2.8784 8.8477s2.8784 22.308 2.8784 22.308 11.514 19.429-2.8784 19.429-19.429-5.0372-20.149-10.074 0.7196-6.4764-2.1588-8.6352-4.3176-2.1588-3.598-5.0372 2.1588-17.27 2.1588-17.27 0.7196-10.794 4.6774-7.9156l3.9578 2.8784"/><path transform="translate(-92.436 -187)" d="m156.48 568.2s-1.4392-6.9014-12.953-4.5301c0 0-2.8784 5.9693-2.8784 8.8477s-2.8784 22.308-2.8784 22.308-11.514 19.429 2.8784 19.429 19.429-5.0372 20.149-10.074-0.7196-6.4764 2.1588-8.6352 4.3176-2.1588 3.598-5.0372-2.1588-17.27-2.1588-17.27-0.7196-10.794-4.6774-7.9156l-3.9578 2.8784"/></g><circle cx="84.913" cy="26.44" r="19.429" fill="#ffb8b8"/><path transform="translate(-92.436 -187)" d="m161.52 216.32s-7.9156 30.943-9.3548 31.662 33.102 3.598 33.102 3.598-8.6352-26.625 0-30.943z" fill="#ffb8b8"/><path transform="translate(-92.436 -187)" d="m156.46 235.17-9.3e-4 -4e-3 -23.728 16.408 4.3176 128.81s31.662-3.598 38.858-2.8784 30.223-6.4764 30.223-6.4764l-10.086-121.04a9.9419 9.9419 0 0 0-9.2082-9.0916l-4.3218-0.30476s-4.3173 10.689-17.307 5.1746a15.156 15.156 0 0 1-8.7473-10.6z" fill="#d0cde1"/><path transform="translate(-92.436 -187)" d="m157.04 234-29.34 13.981-5.7568 82.754s-11.514 49.652-2.1588 64.044 25.186 15.831 25.186 15.831 20.868-82.754 15.112-110.82-3.0422-65.792-3.0422-65.792z" fill="#575a89"/><path transform="translate(-92.436 -187)" d="m101.79 358.8v10.794s-4.3176 23.747 9.3548 23.027 7.196-25.906 7.196-25.906l-4.3176-7.9156z" fill="#ffb8b8"/><path transform="translate(-92.436 -187)" d="m228.44 380.39-1.4392 12.233s7.196 24.466-6.4764 25.186-3.748-25.036-3.748-25.036l4.4676-13.823z" fill="#ffb8b8"/><g fill="#575a89"><path transform="translate(-92.436 -187)" d="m182.08 238.09a84.747 84.747 0 0 1 35.438 18.422l0.12443 0.10854-10.074 53.25-1.4392 19.429s26.625 94.987-4.3176 81.315c0 0-26.625-82.754-23.027-120.89s3.2955-51.632 3.2955-51.632z"/><path transform="translate(-92.436 -187)" d="m208.29 255.9c0.7196-0.7196 9.3548 1 9.3548 1s15.831 55.848 15.831 65.203 2.1588 62.605 2.1588 62.605l-18.995 1.9147-15.375-73.986z"/><path transform="translate(-92.436 -187)" d="m132.73 247.98h-5.0372s-14.392 5.7568-15.112 12.233-20.149 71.96-20.149 71.96l5.0372 33.102 18.71-2.8784 3.598-36.7 18.71-40.298z"/></g><path transform="translate(-92.436 -187)" d="m173.57 218.86 0.74492-5.1929c0.17362-1.2104 0.882-2.8018 2.0596-2.4726 1.0016 0.28 3.1838 1.1374 3.5491 0.87857 1.3682-0.96923 3.4387 0.72552 4.8774-0.13549 0.6028-0.36073 0.996-1.1336 1.6966-1.1852a1.9326 1.9326 0 0 1 1.2455 0.56426 8.4772 8.4772 0 0 0 3.2241 1.7515 3.468 3.468 0 0 0 3.3942-0.92517 1.8026 1.8026 0 0 1 0.60022-0.57537 1.3466 1.3466 0 0 1 0.86308 0.03969l3.6761 1.0009a14.126 14.126 0 0 0-1.8899-11.63 23.391 23.391 0 0 0-5.3542-5.2436q-3.4148-2.5979-7.0482-4.887a22.892 22.892 0 0 0-8.563-3.7254c-3.1-0.47075-6.5711 0.37147-8.5211 2.827a5.4868 5.4868 0 0 1-1.9736-2.6662 2.0196 2.0196 0 0 0 0.1303 3.0967l-3.109-1.9854c-0.874 0.91767 0.83358 2.5817 0.08892 3.6071a1.8998 1.8998 0 0 1-0.837 0.54649 14.252 14.252 0 0 0-4.5586 2.8692 17.01 17.01 0 0 0-3.5902 6.6136c-1.8526 5.3149-3.1991 11.41-0.56689 16.385 0.29841 0.564 4.2374 9.8735 4.7622 10.237 1.774 1.2272 0.61919-1.7427 1.8903 0 0.9968 1.3666 0.81021-3.8638 2.2916-2.7157a3.693 3.693 0 0 0 4.0197 0.18077c0.61419-0.42594 0.41628-2.7912 0.08489-4.9633a2.5589 2.5589 0 0 1 3.1133-2.879c1.8451 0.43405 3.668 0.80493 3.6996 0.58447z" fill="#2f2e41"/><polygon points="117.66 134.02 125.57 199.5 120.53 199.5" opacity=".2"/><polygon points="34.181 108.83 30.179 134.02 37.779 108.83 35.62 108.83" opacity=".2"/><g><text x="385.54797" y="626.28705" fill="#000000" font-family="'Arial Rounded MT Bold'" font-size="17.333px" letter-spacing="0px" word-spacing="0px" style="line-height:1.25" xml:space="preserve"><tspan x="385.54797" y="641.9071"/></text><g transform="translate(122.57 -250.72)" fill="#3f3d56" aria-label="C/C++"><path d="m272.29 591.61h16.828v-16.875h11.438v16.875h16.922v11.438h-16.922v16.781h-11.438v-16.781h-16.828zm-51.188 0h16.828v-16.875h11.438v16.875h16.922v11.438h-16.922v16.781h-11.438v-16.781h-16.828v-11.438zm-6.2344 0.79687h-19.734c-0.083-6.2405 0.21093-12.497-0.25635-18.723 0.36905-3.483-5.0638-4.2953-6.2593-1.3865-1.0932 4.7954-0.50839 9.7774-0.65625 14.661 0.0486 10.565-0.10503 21.134 0.0923 31.697-0.55469 3.1428 1.9594 6.7568 5.3335 4.8765 2.4017-2.2884 1.4069-6.1923 1.7461-9.1875v-9.5156h19.734c-0.076 6.7702 0.24888 13.744-1.9085 20.251-3.1389 7.1756-11.048 11.206-18.612 11.627-7.7982 0.48348-16.777-0.89093-21.966-7.3398-3.8822-5.2677-3.7904-12.168-4.1259-18.415-0.0129-10.552-0.12921-21.108 0.095-31.658 0.0104-5.0888 0.96559-10.449 4.5031-14.343 6.1249-6.9408 16.296-8.1843 24.97-6.6757 7.2233 1.1923 14.618 6.0739 15.957 13.719 1.4092 6.7092 1.026 13.6 1.0872 20.412zm-50.672-34.547-22.5 78.797h-14.344l22.641-78.797zm-40.641 34.547h-19.734c-0.12379-6.4704 0.31078-12.973-0.36914-19.415-2.0464-5.6916-8.5548-0.35108-6.7617 4.1748-0.03882 13.828-0.12809 27.662 0.05127 41.489-1.6465 5.9783 7.7957 7.1674 6.9038 0.78662 0.31102-4.864 0.12463-9.7424 0.17578-14.613h19.734c-0.18481 7.3632 0.52771 15.218-2.7627 22.025-5.1741 8.4841-16.128 11.058-25.422 9.6367-7.7416-0.67314-15.969-5.5708-17.249-13.794-1.9265-10.209-0.97636-20.646-1.2068-30.972 0.1863-7.335-0.69156-14.92 1.6758-21.971 3.4803-8.7439 13.588-12.513 22.418-12.022 8.6182-0.07 18.8 4.0862 21.183 13.141 1.7537 7.0323 1.2895 14.35 1.3638 21.533z"/></g><g transform="translate(234.76 -138.71)" fill="#3f3d56" aria-label="PYTHON"><path d="m737.74 571.57v75.891h-17.297l-10.266-34.5v34.5h-16.5v-75.891h16.5l11.062 34.172v-34.172zm-58.469 44.438c-0.15084 6.3642 0.2269 12.84-1.1136 19.1-1.8751 7.1784-8.5003 12.318-15.691 13.42-8.1639 1.3661-17.687 0.34632-23.6-6.0165-3.7515-3.883-5.0346-9.3488-5.0317-14.601-0.34647-11.199-0.23759-22.409-0.12104-33.611 0.12443-5.5558 0.21858-11.561 3.7919-16.166 5.0735-7.0136 14.465-8.8489 22.622-7.9594 7.1358 0.62354 14.36 4.5368 17.191 11.393 2.2909 5.4544 1.6394 11.537 1.9319 17.31 0.0367 5.7104 0.013 11.421 0.0198 17.132zm-19.734-24.938c-0.37431-2.6603 0.88407-7.3257-2.5627-8.2266-4.3566-0.22695-3.4309 5.3756-3.6248 8.2266 0.0404 13.227-0.0858 26.457 0.0725 39.683-0.50757 2.8046 1.2135 7.005 4.6267 5.0127 2.0783-2.4012 1.165-6.0501 1.4861-9.0016 5e-3 -11.898 7.5e-4 -23.796 2e-3 -35.694zm-40.234-19.5v75.891h-19.734v-31.875h-5.9062v31.875h-19.734v-75.891h19.734v27.141h5.9062v-27.141zm-56.875 0v15.188h-11.719v60.703h-19.734v-60.703h-11.672v-15.188zm-50.078 0-14.391 48.422v27.469h-18.281v-27.469l-13.875-48.422h18.141q4.2656 22.172 4.7812 29.859 1.6406-12.141 5.4844-29.859zm-97.234 0c8.4644 0.0713 16.936-0.16891 25.395 0.17798 5.4422 0.37388 11.838 1.5675 14.819 6.6819 2.7181 4.9501 2.1657 10.831 2.302 16.288-0.11058 5.3951 0.53224 11.106-1.9146 16.097-3.0498 4.9458-9.4064 5.972-14.771 6.0758-2.0319 0.0148-4.0638 3e-3 -6.0958 7e-3v30.562h-19.734v-75.891zm19.734 12.984v19.312c3.2878 0.8505 6.6274-1.3362 6.2139-4.9131 0.0647-3.5628 0.19671-7.1481-0.10401-10.701-0.0324-3.3253-3.5471-3.7669-6.1099-3.6988z"/></g></g><g transform="rotate(14.535 3472.6 1221.8)"><g transform="translate(-.28394 86.497)"><path d="m720.58 974.29h-416c-26.51 0-48-15.204-48-33.96v-158.48c0-18.756 21.49-33.96 48-33.96h416c26.51 0 48 15.204 48 33.96v158.48c0 18.756-21.49 33.96-48 33.96z" fill="#3f3d56" stroke-width=".84113"/><path d="m705.47 692.61h-11.69a5.8452 4.6071 0 0 0-5.8452 4.6071v13.821h-5.8452a5.8452 4.6071 0 0 0-5.8452 4.6071v32.25h46.762v-32.25a5.8452 4.6071 0 0 0-5.8452-4.6071h-5.8452v-13.821a5.8452 4.6071 0 0 0-5.8452-4.6071zm-374.1 0h-11.69a5.8452 4.6071 0 0 0-5.8452 4.6071v13.821h-5.8452a5.8452 4.6071 0 0 0-5.8452 4.6071v32.25h46.762v-32.25a5.8452 4.6071 0 0 0-5.8452-4.6071h-5.8452v-13.821a5.8452 4.6071 0 0 0-5.8452-4.6071zm93.524 0h-11.69a5.8452 4.6071 0 0 0-5.8452 4.6071v13.821h-5.8452a5.8452 4.6071 0 0 0-5.8452 4.6071v32.25h46.762v-32.25a5.8452 4.6071 0 0 0-5.8452-4.6071h-5.8452v-13.821a5.8452 4.6071 0 0 0-5.8452-4.6071zm93.524 0h-11.69a5.8452 4.6071 0 0 0-5.8452 4.6071v13.821h-5.8452a5.8452 4.6071 0 0 0-5.8452 4.6071v32.25h46.762v-32.25a5.8452 4.6071 0 0 0-5.8452-4.6071h-5.8452v-13.821a5.8452 4.6071 0 0 0-5.8452-4.6071zm93.524 0h-11.69a5.8452 4.6071 0 0 0-5.8452 4.6071v13.821h-5.8452a5.8452 4.6071 0 0 0-5.8452 4.6071v32.25h46.762v-32.25a5.8452 4.6071 0 0 0-5.8452-4.6071h-5.8452v-13.821a5.8452 4.6071 0 0 0-5.8452-4.6071z" fill="#999" stroke-width=".8649"/></g><path d="m705.19 1116.1h-11.69a5.8452 4.6071 0 0 1-5.8452-4.6071v-13.821h-5.8452a5.8452 4.6071 0 0 1-5.8452-4.6071v-32.25h46.762v32.25a5.8452 4.6071 0 0 1-5.8452 4.6071h-5.8452v13.821a5.8452 4.6071 0 0 1-5.8452 4.6071zm-374.1 0h-11.69a5.8452 4.6071 0 0 1-5.8452-4.6071v-13.821h-5.8452a5.8452 4.6071 0 0 1-5.8452-4.6071v-32.25h46.762v32.25a5.8452 4.6071 0 0 1-5.8452 4.6071h-5.8452v13.821a5.8452 4.6071 0 0 1-5.8452 4.6071zm93.524 0h-11.69a5.8452 4.6071 0 0 1-5.8452-4.6071v-13.821h-5.8452a5.8452 4.6071 0 0 1-5.8452-4.6071v-32.25h46.762v32.25a5.8452 4.6071 0 0 1-5.8452 4.6071h-5.8452v13.821a5.8452 4.6071 0 0 1-5.8452 4.6071zm93.524 0h-11.69a5.8452 4.6071 0 0 1-5.8452-4.6071v-13.821h-5.8452a5.8452 4.6071 0 0 1-5.8452-4.6071v-32.25h46.762v32.25a5.8452 4.6071 0 0 1-5.8452 4.6071h-5.8452v13.821a5.8452 4.6071 0 0 1-5.8452 4.6071zm93.524 0h-11.69a5.8452 4.6071 0 0 1-5.8452-4.6071v-13.821h-5.8452a5.8452 4.6071 0 0 1-5.8452-4.6071v-32.25h46.762v32.25a5.8452 4.6071 0 0 1-5.8452 4.6071h-5.8452v13.821a5.8452 4.6071 0 0 1-5.8452 4.6071z" fill="#999" stroke-width=".8649"/></g><g transform="rotate(16.047 4339.9 1387.1)" fill="#6c63ff" aria-label="ASSEMBLY"><path d="m708.77 1234.6-14.391 48.422v27.469h-18.281v-27.469l-13.875-48.422h18.141q4.2656 22.172 4.7812 29.859 1.6406-12.141 5.4844-29.859zm-58.688 0v60.703h12v15.188h-31.734v-75.891zm-78.797 0c8.6811 0.073 17.37-0.1799 26.044 0.2043 5.3836 0.3261 11.402 1.402 14.766 6.0887 3.739 4.8841 3.754 11.427 3.6692 17.298-0.11157 3.5577-1.0655 7.7519-4.6431 9.3632-1.2831 1.0139-5.1176 1.5973-5.1944 2.0664 4.4625 0.9527 9.2262 3.4654 10.343 8.2699 1.4669 5.2705 0.81124 10.795 0.93649 16.194-0.1658 4.9683-0.61019 10.944-5.1474 13.968-4.1224 2.4434-9.1531 2.0791-13.765 2.39-9.0025 0.099-18.006 0.025-27.01 0.048v-75.891zm19.734 12.984v16.875c3.2566 0.5849 6.9363-0.8793 6.3162-4.764 0.0132-3.4794 0.75671-7.2875-0.85821-10.52-1.1112-1.8497-3.6393-1.4272-5.458-1.5907zm0 28.688v21.234c2.9133 0.1728 6.6974-0.8827 6.3543-4.5412 0.1574-4.3743 0.23009-8.7777-0.0829-13.145 0.13534-3.5313-3.8066-3.3967-6.2714-3.5482zm-33.656-41.672v75.891h-17.25v-51.234c-2.2969 17.078-4.5938 34.156-6.8906 51.234h-12.234c-2.4219-16.688-4.8438-33.375-7.2656-50.062v50.062h-17.25v-75.891h25.547c1.8856 11.785 3.4058 23.625 5.1094 35.438l4.5-35.438h25.734zm-106.83 0h32.906v15.188h-13.172v14.391h12.328v14.438h-12.328v16.688h14.484v15.188h-34.219v-75.891zm-13.875 22.969h-18.328c-0.12749-3.4406 0.36545-6.97-0.53833-10.326-1.7586-3.0435-6.3023-0.6939-5.9927 2.4632-0.35331 3.5604-0.19465 7.9781 3.1555 10.137 6.6182 4.5839 14.182 8.1611 19.457 14.432 3.8683 5.3782 3.883 12.417 3.8577 18.77-0.13835 5.1911-0.94626 11.182-5.6272 14.321-7.0816 5.109-16.566 5.6592-24.831 3.6606-5.9524-1.5515-11.954-5.689-13.021-12.146-1.1694-5.1081-0.95452-10.374-0.97559-15.577h18.328c0.0974 4.4576-0.24517 8.9436 0.29297 13.376 0.30415 3.4626 5.846 3.3317 6.5596 0.1473 0.95879-3.6219 0.67746-7.6218-0.47461-11.171-1.716-3.0851-5.1442-4.6848-7.8683-6.7706-4.435-3.109-9.2939-5.7827-13.061-9.7265-4.9203-5.9785-4.7941-14.266-3.964-21.556 0.42776-4.6885 2.9929-9.1702 7.2325-11.393 6.7944-3.7687 15.051-3.84 22.48-2.2328 5.2256 1.3285 11.04 4.2838 12.317 10.001 1.1037 4.4378 0.99587 9.0507 1.002 13.591zm-55.688 0h-18.328c-0.12749-3.4406 0.36545-6.97-0.53833-10.326-1.7586-3.0435-6.3023-0.6939-5.9927 2.4632-0.35331 3.5604-0.19465 7.9781 3.1555 10.137 6.6182 4.5839 14.182 8.1611 19.457 14.432 3.8683 5.3782 3.883 12.417 3.8577 18.77-0.13835 5.1911-0.94626 11.182-5.6272 14.321-7.0816 5.109-16.566 5.6592-24.831 3.6606-5.9524-1.5515-11.954-5.689-13.021-12.146-1.1694-5.1081-0.95452-10.374-0.97559-15.577h18.328c0.0974 4.4576-0.24517 8.9436 0.29297 13.376 0.30415 3.4626 5.846 3.3317 6.5596 0.1473 0.95879-3.6219 0.67746-7.6218-0.47461-11.171-1.716-3.0851-5.1442-4.6848-7.8683-6.7706-4.435-3.109-9.2939-5.7827-13.061-9.7265-4.9203-5.9785-4.7941-14.266-3.964-21.556 0.42776-4.6885 2.9929-9.1702 7.2325-11.393 6.7944-3.7687 15.051-3.84 22.48-2.2328 5.2256 1.3285 11.04 4.2838 12.317 10.001 1.1037 4.4378 0.99587 9.0507 1.002 13.591zm-62.484-22.969c3.7656 25.297 7.5312 50.594 11.297 75.891h-20.203c-0.32813-4.5469-0.65625-9.0937-0.98438-13.641h-7.0781c-0.39063 4.5469-0.78125 9.0937-1.1719 13.641h-20.438c3.3438-25.297 6.6875-50.594 10.031-75.891h28.547zm-10.453 48.797c-1.2232-10.587-2.1524-21.205-3-31.828-1.428 10.586-2.8917 21.177-3.75 31.828h6.75z"/></g></svg>
