<svg data-name="Layer 1" version="1.1" viewBox="0 0 710 670" xmlns="http://www.w3.org/2000/svg"><title>static_website</title><ellipse cx="289.51" cy="513.89" rx="284" ry="10.5" fill="#d0cde1"/><ellipse cx="482.39" cy="656.01" rx="221" ry="10.5" fill="#d0cde1"/><polygon transform="matrix(1.3168 0 0 1.2396 3.4896 77.698)" points="97.146 389.12 97.146 368.25 82.034 366.09 79.876 390.56" fill="#ffb8b8"/><polygon transform="matrix(1.3168 0 0 1.2396 3.4896 77.698)" points="51.092 389.12 51.092 368.25 66.203 366.09 68.362 390.56" fill="#ffb8b8"/><g fill="#2f2e41" stroke-width="1.2776"><path d="m150.36 298.68s7.5805 42.816 7.5805 49.06c0 6.244-2.8427 46.384-7.5805 54.412-4.7378 8.028-5.6854 11.596-3.7903 15.164 1.8951 3.568 0.94757 2.676 0 5.352-0.94755 2.676-2.8427 1.784 0 5.352a9.9558 9.372 0 0 1 0 10.704c-1.8951 2.676 3.7903 74.928-3.7902 80.28-7.5805 5.352-9.4756 23.192-9.4756 23.192l-24.637-2.676v-19.624s-5.6854-14.272-1.8951-23.192c3.7903-8.92 5.6854-56.196 5.6854-56.196s-0.94757-4.46 0-7.136c0.94756-2.676 0-4.46-1.8951-5.352-1.8951-0.892-2.8427-4.46-2.8427-4.46l-2.8427-65.116-11.371 64.224s11.371 87.416 0 99.012v20.516h-24.637l3.7903-22.3s-7.5805-20.516-3.7903-24.976c3.7903-4.46-11.371-75.82-9.4756-78.496 1.8951-2.676 0.94756-3.568 0-5.352-0.94756-1.784-3.7903-3.568-2.8427-5.352 0.94756-1.784 0-5.352 0-5.352s-18.004-83.848-9.4756-91.876c8.5281-8.028 103.28-9.8119 103.28-9.8119z"/><path d="m114.35 550.23s1.8951-8.5548 17.056-5.6154c0 0 3.7902 7.3994 3.7902 10.967 0 3.568 3.7903 27.652 3.7903 27.652s15.161 24.084-3.7903 24.084c-18.951 0-25.584-6.244-26.532-12.488-0.94757-6.244 0.94756-8.028-2.8427-10.704-3.7902-2.676-5.6854-2.676-4.7378-6.244 0.94756-3.568 2.8427-21.408 2.8427-21.408s0.94757-13.38 6.1592-9.812l5.2116 3.568"/><path d="m87.823 550.23s-1.8951-8.5548-17.056-5.6154c0 0-3.7902 7.3994-3.7902 10.967 0 3.568-3.7903 27.652-3.7903 27.652s-15.161 24.084 3.7903 24.084c18.951 0 25.584-6.244 26.532-12.488 0.94756-6.244-0.94756-8.028 2.8427-10.704 3.7902-2.676 5.6854-2.676 4.7378-6.244-0.94757-3.568-2.8427-21.408-2.8427-21.408s-0.94756-13.38-6.1592-9.812l-5.2116 3.568"/></g><g stroke-width="1.2776"><ellipse cx="115.3" cy="110.47" rx="25.584" ry="24.084" fill="#ffb8b8"/><path d="m94.456 114.04s-10.423 38.356-12.318 39.248 43.588 4.46 43.588 4.46-11.371-33.004 0-38.356z" fill="#ffb8b8"/><path d="m87.799 137.41-0.0012-5e-3 -31.245 20.339 5.6854 159.67s41.693-4.46 51.168-3.568c9.4756 0.892 39.798-8.028 39.798-8.028l-13.282-150.03a13.091 12.324 0 0 0-12.125-11.27l-5.6908-0.37778s-5.685 13.25-22.789 6.4144a19.958 18.787 0 0 1-11.518-13.14z" fill="#d0cde1"/><path d="m88.555 135.96-38.634 17.33-7.5805 102.58s-15.161 61.548-2.8427 79.388c12.318 17.84 33.165 19.624 33.165 19.624s27.479-102.58 19.899-137.37c-7.5805-34.788-4.0059-81.554-4.0059-81.554z" fill="#575a89"/><path d="m15.808 290.66v13.38s-5.6854 29.436 12.318 28.544c18.004-0.89199 9.4756-32.112 9.4756-32.112l-5.6854-9.812z" fill="#ffb8b8"/><path d="m182.58 317.42-1.8951 15.164s9.4756 30.328-8.5281 31.22-4.9353-31.034-4.9353-31.034l5.8828-17.134z" fill="#ffb8b8"/></g><g fill="#575a89" stroke-width="1.2776"><path d="m121.54 141.02a111.59 105.05 0 0 1 46.665 22.836l0.16384 0.13454-13.266 66.008-1.8951 24.084s35.06 117.74-5.6854 100.8c0 0-35.06-102.58-30.322-149.86 4.7378-47.276 4.3395-64.002 4.3395-64.002z"/><path d="m156.05 163.1c0.94755-0.892 12.318 1.2396 12.318 1.2396s20.846 69.228 20.846 80.824c0 11.596 2.8427 77.604 2.8427 77.604l-25.013 2.3735-20.246-91.712z"/><path d="m56.553 153.29h-6.6329s-18.951 7.136-19.899 15.164c-0.94756 8.028-26.532 89.2-26.532 89.2l6.6329 41.032 24.637-3.568 4.7378-45.492 24.637-49.952z"/></g><path d="m110.33 117.19 0.9809-6.437c0.22862-1.5003 1.1614-3.473 2.712-3.065 1.3189 0.34709 4.1923 1.4099 4.6734 1.089 1.8016-1.2014 4.528 0.89935 6.4226-0.16794 0.79377-0.44715 1.3115-1.4052 2.2341-1.4691a2.5448 2.3956 0 0 1 1.6401 0.69945 11.163 10.508 0 0 0 4.2455 2.1711 4.5666 4.2989 0 0 0 4.4695-1.1468 2.3736 2.2344 0 0 1 0.79035-0.71322 1.7732 1.6692 0 0 1 1.1365 0.0491l4.8407 1.2407a18.6 17.51 0 0 0-2.4886-14.416 30.801 28.995 0 0 0-7.0504-6.4999q-4.4967-3.2203-9.2811-6.0578a30.144 28.377 0 0 0-11.276-4.6179c-4.0821-0.58353-8.6528 0.46047-11.22 3.5043a7.225 6.8014 0 0 1-2.5988-3.3049 2.6594 2.5035 0 0 0 0.17158 3.8386l-4.0939-2.461c-1.1509 1.1375 1.0976 3.2002 0.11706 4.4713a2.5016 2.3549 0 0 1-1.1022 0.67741 18.767 17.667 0 0 0-6.0028 3.5566 22.399 21.086 0 0 0-4.7276 8.198c-2.4395 6.5883-4.2125 14.144-0.74647 20.311 0.39294 0.69912 5.5798 12.239 6.2708 12.689 2.336 1.5211 0.81534-2.1602 2.4892 0 1.3126 1.694 1.0669-4.7895 3.0176-3.3664a4.8629 4.5778 0 0 0 5.2931 0.22408c0.80877-0.52799 0.54816-3.4599 0.1118-6.1524a3.3696 3.172 0 0 1 4.0996-3.5687c2.4296 0.53804 4.83 0.99778 4.8716 0.72451z" fill="#2f2e41" stroke-width="1.2776"/><polygon transform="matrix(1.3168 0 0 1.2396 3.4896 77.698)" points="120.53 199.5 117.66 134.02 125.57 199.5" opacity=".2"/><polygon transform="matrix(1.3168 0 0 1.2396 3.4896 77.698)" points="37.779 108.83 35.62 108.83 34.181 108.83 30.179 134.02" opacity=".2"/><g><text x="385.54797" y="770.28705" fill="#000000" font-family="'Arial Rounded MT Bold'" font-size="17.333px" letter-spacing="0px" word-spacing="0px" style="line-height:1.25" xml:space="preserve"><tspan x="385.54797" y="785.9071"/></text><g transform="translate(124.9 -111.37)" fill="#3f3d56" aria-label="C/C++"><path d="m272.29 569.51h16.828v-16.875h11.438v16.875h16.922v11.438h-16.922v16.781h-11.438v-16.781h-16.828zm-51.188 0h16.828v-16.875h11.438v16.875h16.922v11.438h-16.922v16.781h-11.438v-16.781h-16.828v-11.438zm-6.2344 0.79687h-19.734c-0.083-6.2405 0.21093-12.497-0.25635-18.723 0.36905-3.483-5.0638-4.2953-6.2593-1.3865-1.0932 4.7954-0.50839 9.7774-0.65625 14.661 0.0486 10.565-0.10503 21.134 0.0923 31.697-0.55469 3.1428 1.9594 6.7568 5.3335 4.8765 2.4017-2.2884 1.4069-6.1923 1.7461-9.1875v-9.5156h19.734c-0.076 6.7702 0.24888 13.744-1.9085 20.251-3.1389 7.1756-11.048 11.206-18.612 11.627-7.7982 0.48348-16.777-0.89093-21.966-7.3398-3.8822-5.2677-3.7904-12.168-4.1259-18.415-0.0129-10.552-0.12921-21.108 0.095-31.658 0.0104-5.0888 0.96559-10.449 4.5031-14.343 6.1249-6.9408 16.296-8.1843 24.97-6.6757 7.2233 1.1923 14.618 6.0739 15.957 13.719 1.4092 6.7092 1.026 13.6 1.0872 20.412zm-50.672-34.547-22.5 78.797h-14.344l22.641-78.797zm-40.641 34.547h-19.734c-0.12379-6.4704 0.31078-12.973-0.36914-19.415-2.0464-5.6916-8.5548-0.35108-6.7617 4.1748-0.03882 13.828-0.12809 27.662 0.05127 41.489-1.6465 5.9783 7.7957 7.1674 6.9038 0.78662 0.31102-4.864 0.12463-9.7424 0.17578-14.613h19.734c-0.18481 7.3632 0.52771 15.218-2.7627 22.025-5.1741 8.4841-16.128 11.058-25.422 9.6367-7.7416-0.67314-15.969-5.5708-17.249-13.794-1.9265-10.209-0.97636-20.646-1.2068-30.972 0.1863-7.335-0.69156-14.92 1.6758-21.971 3.4803-8.7439 13.588-12.513 22.418-12.022 8.6182-0.07 18.8 4.0862 21.183 13.141 1.7537 7.0323 1.2895 14.35 1.3638 21.533z"/></g><g transform="translate(-94.035 -3.5458)" fill="#3f3d56" aria-label="PYTHON"><path d="m737.74 571.57v75.891h-17.297l-10.266-34.5v34.5h-16.5v-75.891h16.5l11.062 34.172v-34.172zm-58.469 44.438c-0.15084 6.3642 0.2269 12.84-1.1136 19.1-1.8751 7.1784-8.5003 12.318-15.691 13.42-8.1639 1.3661-17.687 0.34632-23.6-6.0165-3.7515-3.883-5.0346-9.3488-5.0317-14.601-0.34647-11.199-0.23759-22.409-0.12104-33.611 0.12443-5.5558 0.21858-11.561 3.7919-16.166 5.0735-7.0136 14.465-8.8489 22.622-7.9594 7.1358 0.62354 14.36 4.5368 17.191 11.393 2.2909 5.4544 1.6394 11.537 1.9319 17.31 0.0367 5.7104 0.013 11.421 0.0198 17.132zm-19.734-24.938c-0.37431-2.6603 0.88407-7.3257-2.5627-8.2266-4.3566-0.22695-3.4309 5.3756-3.6248 8.2266 0.0404 13.227-0.0858 26.457 0.0725 39.683-0.50757 2.8046 1.2135 7.005 4.6267 5.0127 2.0783-2.4012 1.165-6.0501 1.4861-9.0016 5e-3 -11.898 7.5e-4 -23.796 2e-3 -35.694zm-40.234-19.5v75.891h-19.734v-31.875h-5.9062v31.875h-19.734v-75.891h19.734v27.141h5.9062v-27.141zm-56.875 0v15.188h-11.719v60.703h-19.734v-60.703h-11.672v-15.188zm-50.078 0-14.391 48.422v27.469h-18.281v-27.469l-13.875-48.422h18.141q4.2656 22.172 4.7812 29.859 1.6406-12.141 5.4844-29.859zm-97.234 0c8.4644 0.0713 16.936-0.16891 25.395 0.17798 5.4422 0.37388 11.838 1.5675 14.819 6.6819 2.7181 4.9501 2.1657 10.831 2.302 16.288-0.11058 5.3951 0.53224 11.106-1.9146 16.097-3.0498 4.9458-9.4064 5.972-14.771 6.0758-2.0319 0.0148-4.0638 3e-3 -6.0958 7e-3v30.562h-19.734v-75.891zm19.734 12.984v19.312c3.2878 0.8505 6.6274-1.3362 6.2139-4.9131 0.0647-3.5628 0.19671-7.1481-0.10401-10.701-0.0324-3.3253-3.5471-3.7669-6.1099-3.6988z"/></g></g><g transform="rotate(21.512 2436.9 294.68)"><g transform="matrix(.95308 .10922 -.1064 .9555 145.43 -22.154)"><g transform="rotate(-.18534 42719 -29860)"><g transform="translate(-4.006 -4.6395e-5)"><path d="m661.14 937.92-416-0.48133c-26.51-0.0307-47.982-15.26-47.961-34.015l0.18336-158.48c0.0217-18.756 21.529-33.935 48.039-33.904l416 0.48132c26.51 0.0307 47.982 15.26 47.961 34.015l-0.18337 158.48c-0.0217 18.756-21.529 33.935-48.039 33.904z" fill="#3f3d56" stroke-width=".84113"/><path d="m644.56 687.51c4.225-1.0484 12.704 2.1568 14.118-1.7025-0.61095-4.5955 1.1961-11.609-0.85127-14.768-3.9917 1.2817-13.371-2.8238-13.266 2.5538v13.917zm-6.4706 23.53h27.059v-23.529h-27.059v23.529zm-59.645-23.53c4.225-1.0484 12.704 2.1568 14.118-1.7025-0.61095-4.5955 1.1961-11.609-0.85127-14.768-3.9917 1.2817-13.371-2.8238-13.266 2.5538v13.917zm-6.4706 23.53h27.059v-23.529h-27.059v23.529zm-59.645-23.53c4.225-1.0484 12.704 2.1568 14.118-1.7025-0.61095-4.5955 1.1961-11.609-0.85127-14.768-3.9917 1.2817-13.371-2.8238-13.266 2.5538v13.917zm-6.4706 23.53h27.059v-23.529h-27.059v23.529zm-59.645-23.53c4.225-1.0484 12.704 2.1568 14.118-1.7025-0.61095-4.5955 1.1961-11.609-0.85127-14.768-3.9917 1.2817-13.371-2.8238-13.266 2.5538v13.917zm-6.4706 23.53h27.059v-23.529h-27.059v23.529zm-59.645-23.53c4.225-1.0484 12.704 2.1568 14.118-1.7025-0.61095-4.5955 1.1961-11.609-0.85127-14.768-3.9917 1.2817-13.371-2.8238-13.266 2.5538v13.917zm-6.4706 23.53h27.059v-23.529h-27.059v23.529zm-59.645-23.53c4.225-1.0484 12.704 2.1568 14.118-1.7025-0.61095-4.5955 1.1961-11.609-0.85127-14.768-3.9917 1.2817-13.371-2.8238-13.266 2.5538v13.917zm-6.4706 23.53h27.059v-23.529h-27.059v23.529zm-59.645-23.53c4.225-1.0484 12.704 2.1568 14.118-1.7025-0.61095-4.5955 1.1961-11.609-0.85127-14.768-3.9917 1.2817-13.371-2.8238-13.266 2.5538v13.917zm-6.4706 23.53h27.059v-23.529h-27.059v23.529z" fill="#b3b3b3" stroke-width=".68599"/></g><path d="m640.55 961.45c4.225 1.0484 12.704-2.1568 14.118 1.7025-0.61095 4.5955 1.1961 11.609-0.85127 14.768-3.9917-1.2817-13.371 2.8238-13.266-2.5538v-13.917zm-6.4706-23.53h27.059v23.529h-27.059v-23.529zm-59.645 23.53c4.225 1.0484 12.704-2.1568 14.118 1.7025-0.61095 4.5955 1.1961 11.609-0.85127 14.768-3.9917-1.2817-13.371 2.8238-13.266-2.5538v-13.917zm-6.4706-23.53h27.059v23.529h-27.059v-23.529zm-59.645 23.53c4.225 1.0484 12.704-2.1568 14.118 1.7025-0.61095 4.5955 1.1961 11.609-0.85127 14.768-3.9917-1.2817-13.371 2.8238-13.266-2.5538v-13.917zm-6.4706-23.53h27.059v23.529h-27.059v-23.529zm-59.645 23.53c4.225 1.0484 12.704-2.1568 14.118 1.7025-0.61095 4.5955 1.1961 11.609-0.85127 14.768-3.9917-1.2817-13.371 2.8238-13.266-2.5538v-13.917zm-6.4706-23.53h27.059v23.529h-27.059v-23.529zm-59.645 23.53c4.225 1.0484 12.704-2.1568 14.118 1.7025-0.61095 4.5955 1.1961 11.609-0.85127 14.768-3.9917-1.2817-13.371 2.8238-13.266-2.5538v-13.917zm-6.4706-23.53h27.059v23.529h-27.059v-23.529zm-59.645 23.53c4.225 1.0484 12.704-2.1568 14.118 1.7025-0.61095 4.5955 1.1961 11.609-0.85127 14.768-3.9917-1.2817-13.371 2.8238-13.266-2.5538v-13.917zm-6.4706-23.53h27.059v23.529h-27.059v-23.529zm-59.645 23.53c4.225 1.0484 12.704-2.1568 14.118 1.7025-0.61095 4.5955 1.1961 11.609-0.85127 14.768-3.9917-1.2817-13.371 2.8238-13.266-2.5538v-13.917zm-6.4706-23.53h27.059v23.529h-27.059v-23.529z" fill="#b3b3b3" stroke-width=".68599"/></g><g transform="rotate(.0014242 12533048 2194550)" fill="#6c63ff" aria-label="ASSEMBLY"><path d="m708.77 1234.6-14.391 48.422v27.469h-18.281v-27.469l-13.875-48.422h18.141q4.2656 22.172 4.7812 29.859 1.6406-12.141 5.4844-29.859zm-58.688 0v60.703h12v15.188h-31.734v-75.891zm-78.797 0c8.6811 0.073 17.37-0.1799 26.044 0.2043 5.3836 0.3261 11.402 1.402 14.766 6.0887 3.739 4.8841 3.754 11.427 3.6692 17.298-0.11157 3.5577-1.0655 7.7519-4.6431 9.3632-1.2831 1.0139-5.1176 1.5973-5.1944 2.0664 4.4625 0.9527 9.2262 3.4654 10.343 8.2699 1.4669 5.2705 0.81124 10.795 0.93649 16.194-0.1658 4.9683-0.61019 10.944-5.1474 13.968-4.1224 2.4434-9.1531 2.0791-13.765 2.39-9.0025 0.099-18.006 0.025-27.01 0.048v-75.891zm19.734 12.984v16.875c3.2566 0.5849 6.9363-0.8793 6.3162-4.764 0.0132-3.4794 0.75671-7.2875-0.85821-10.52-1.1112-1.8497-3.6393-1.4272-5.458-1.5907zm0 28.688v21.234c2.9133 0.1728 6.6974-0.8827 6.3543-4.5412 0.1574-4.3743 0.23009-8.7777-0.0829-13.145 0.13534-3.5313-3.8066-3.3967-6.2714-3.5482zm-33.656-41.672v75.891h-17.25v-51.234c-2.2969 17.078-4.5938 34.156-6.8906 51.234h-12.234c-2.4219-16.688-4.8438-33.375-7.2656-50.062v50.062h-17.25v-75.891h25.547c1.8856 11.785 3.4058 23.625 5.1094 35.438l4.5-35.438h25.734zm-106.83 0h32.906v15.188h-13.172v14.391h12.328v14.438h-12.328v16.688h14.484v15.188h-34.219v-75.891zm-13.875 22.969h-18.328c-0.12749-3.4406 0.36545-6.97-0.53833-10.326-1.7586-3.0435-6.3023-0.6939-5.9927 2.4632-0.35331 3.5604-0.19465 7.9781 3.1555 10.137 6.6182 4.5839 14.182 8.1611 19.457 14.432 3.8683 5.3782 3.883 12.417 3.8577 18.77-0.13835 5.1911-0.94626 11.182-5.6272 14.321-7.0816 5.109-16.566 5.6592-24.831 3.6606-5.9524-1.5515-11.954-5.689-13.021-12.146-1.1694-5.1081-0.95452-10.374-0.97559-15.577h18.328c0.0974 4.4576-0.24517 8.9436 0.29297 13.376 0.30415 3.4626 5.846 3.3317 6.5596 0.1473 0.95879-3.6219 0.67746-7.6218-0.47461-11.171-1.716-3.0851-5.1442-4.6848-7.8683-6.7706-4.435-3.109-9.2939-5.7827-13.061-9.7265-4.9203-5.9785-4.7941-14.266-3.964-21.556 0.42776-4.6885 2.9929-9.1702 7.2325-11.393 6.7944-3.7687 15.051-3.84 22.48-2.2328 5.2256 1.3285 11.04 4.2838 12.317 10.001 1.1037 4.4378 0.99587 9.0507 1.002 13.591zm-55.688 0h-18.328c-0.12749-3.4406 0.36545-6.97-0.53833-10.326-1.7586-3.0435-6.3023-0.6939-5.9927 2.4632-0.35331 3.5604-0.19465 7.9781 3.1555 10.137 6.6182 4.5839 14.182 8.1611 19.457 14.432 3.8683 5.3782 3.883 12.417 3.8577 18.77-0.13835 5.1911-0.94626 11.182-5.6272 14.321-7.0816 5.109-16.566 5.6592-24.831 3.6606-5.9524-1.5515-11.954-5.689-13.021-12.146-1.1694-5.1081-0.95452-10.374-0.97559-15.577h18.328c0.0974 4.4576-0.24517 8.9436 0.29297 13.376 0.30415 3.4626 5.846 3.3317 6.5596 0.1473 0.95879-3.6219 0.67746-7.6218-0.47461-11.171-1.716-3.0851-5.1442-4.6848-7.8683-6.7706-4.435-3.109-9.2939-5.7827-13.061-9.7265-4.9203-5.9785-4.7941-14.266-3.964-21.556 0.42776-4.6885 2.9929-9.1702 7.2325-11.393 6.7944-3.7687 15.051-3.84 22.48-2.2328 5.2256 1.3285 11.04 4.2838 12.317 10.001 1.1037 4.4378 0.99587 9.0507 1.002 13.591zm-62.484-22.969c3.7656 25.297 7.5312 50.594 11.297 75.891h-20.203c-0.32813-4.5469-0.65625-9.0937-0.98438-13.641h-7.0781c-0.39063 4.5469-0.78125 9.0937-1.1719 13.641h-20.438c3.3438-25.297 6.6875-50.594 10.031-75.891h28.547zm-10.453 48.797c-1.2232-10.587-2.1524-21.205-3-31.828-1.428 10.586-2.8917 21.177-3.75 31.828h6.75z"/></g></g></g></svg>
