<svg id="b52d7e2d-d80f-4111-b6ed-d15502ee1edd" data-name="Layer 1" version="1.1" viewBox="0 0 710 670" xmlns="http://www.w3.org/2000/svg"><title>feeling_proud</title><polygon transform="translate(0 .31732)" points="671.72 619.28 674.19 380.02 516.33 380.02 516.33 565.01 547.27 615.44 549.62 619.28" fill="#e6e6e6"/><polygon transform="translate(0 .31732)" points="516.33 380.02 516.33 565.01 547.27 615.44 549.17 380.02" opacity=".1"/><polygon transform="translate(0 .31732)" points="66.17 614.34 63.703 375.08 221.57 375.08 221.57 560.08 190.62 610.51 188.27 614.34" fill="#e6e6e6"/><polygon transform="translate(0 .31732)" points="221.57 375.08 221.57 560.08 190.62 610.51 188.72 375.08" opacity=".1"/><polygon transform="translate(0 .31732)" points="109.34 334.38 656.92 334.38 711.19 371.38 711.19 382.48 47.67 382.48 47.67 366.45" fill="#e6e6e6"/><polygon transform="translate(0 .31732)" points="711.19 371.38 711.19 382.48 47.67 382.48 47.67 366.45" opacity=".1"/><g fill="#3f3d56"><polygon transform="translate(0 .31732)" points="142.64 426.88 113.04 426.88 100.7 418.25 156.2 418.25"/><polygon transform="translate(0 .31732)" points="142.64 462.65 113.04 462.65 100.7 454.02 156.2 454.02"/><polygon transform="translate(0 .31732)" points="142.64 513.22 113.04 513.22 100.7 504.58 156.2 504.58"/><polygon transform="translate(0 .31732)" points="142.64 563.78 113.04 563.78 100.7 555.15 156.2 555.15"/><polygon transform="translate(0 .31732)" points="595.26 431.82 624.86 431.82 637.19 423.18 581.69 423.18"/><polygon transform="translate(0 .31732)" points="595.26 467.58 624.86 467.58 637.19 458.95 581.69 458.95"/><polygon transform="translate(0 .31732)" points="595.26 518.15 624.86 518.15 637.19 509.52 581.69 509.52"/><polygon transform="translate(0 .31732)" points="595.26 568.71 624.86 568.71 637.19 560.08 581.69 560.08"/><path d="m615.41 120.77h-249.19a9.4227 9.4227 0 0 0-9.4239 9.4239v167.86a9.4227 9.4227 0 0 0 9.4239 9.4239h94.593l-3.5439 22.626s-20.253 10.759-6.0125 11.076 81.328 0 81.328 0 12.974 0-7.5948-11.392l-3.3336-22.31h93.75a9.4227 9.4227 0 0 0 9.4239-9.4239v-167.86a9.4227 9.4227 0 0 0-9.4239-9.4239z"/></g><g fill="#f2f2f2"><rect x="365.82" y="136.55" width="250" height="139.87"/><circle cx="490.82" cy="126.31" r="1.5822"/><circle cx="490.82" cy="294.66" r="6.0125"/></g><polygon transform="translate(0 .31732)" points="311.44 357.95 315.63 346.56 477.97 346.56 481.45 357.95 481.45 361.12 311.2 361.12 311.2 358.58" fill="#3f3d56"/><path d="m546.97 355.17c-0.31011 1.3259-1.481 2.7247-4.1265 4.0474-9.4935 4.7468-28.797-1.2658-28.797-1.2658s-14.873-2.5316-14.873-9.1771a11.866 11.866 0 0 1 1.3038-0.77528c3.9913-2.1116 17.225-7.3222 40.691 0.22062a9.7862 9.7862 0 0 1 4.4604 2.923 4.667 4.667 0 0 1 1.342 4.0271z" fill="#3f3d56"/><path d="m546.97 355.17c-11.62 4.4525-21.977 4.7847-32.607-2.598a23.343 23.343 0 0 0-13.886-4.5727c3.9913-2.1116 17.225-7.3222 40.691 0.22062a9.7862 9.7862 0 0 1 4.4604 2.923 4.667 4.667 0 0 1 1.342 4.0271z" opacity=".1"/><ellipse cx="532.4" cy="351.31" rx="4.1139" ry="1.2658" fill="#f2f2f2"/><polygon transform="translate(0 .31732)" points="311.44 357.95 481.45 357.95 481.45 361.12 311.2 361.12 311.2 358.58" opacity=".1"/><path d="m94.661 0.31747a8.5539 8.5539 0 0 0-4.9613 1.1083c-1.476 1.0108-2.4063 2.7816-3.3559 4.4295a52.986 52.986 0 0 1-14.434 16.305c-4.2889 3.142-9.7417 7.0597-9.0079 12.853a17.372 17.372 0 0 0 2.0906 5.4255c3.9566 7.987 14.754 14.159 13.692 23.273 3.931-6.5809-1.327-9.835 2.604-16.416 1.872-3.134 5.1241-6.6717 7.9505-4.7035 0.94637 0.659 1.5678 1.841 2.5531 2.4192 2.3512 1.3797 4.8526-1.258 6.9339-3.1263 7.1768-6.4426 17.383-4.7548 26.314-2.7474 4.2162 0.94767 8.8473 2.191 11.34 6.2207 3.277 5.2982-3.1134 11.02-4.7281 17.01a3.264 3.264 0 0 0 3.5029 4.0621c2.6798-0.26434 5.8542-0.481 6.0128-1.6569 3.3715 0.12 7.5027-0.26181 8.9473-3.7725a14.762 14.762 0 0 0 0.69252-4.2932c0.5302-5.8972 3.0331-11.277 4.6912-16.89s2.3791-12.19-0.41909-17.167a19.864 19.864 0 0 0-3.666-4.4556c-15.879-15.367-36.756-17.901-56.752-17.878z" fill="#2f2e41"/><g fill="#ffb8b8"><path d="m82.138 75.223s3.4534 28.778-9.2091 31.081 11.511 41.441 11.511 41.441l57.557 6.9068-13.814-46.045s-9.2091-3.4534-3.4534-26.476c5.7557-23.023-42.592-6.9068-42.592-6.9068z"/><polygon transform="translate(0 .31732)" points="47.028 569.32 51.633 632.63 75.806 632.63 68.9 569.32"/><polygon transform="translate(0 .31732)" points="224.3 449.6 227.76 502.55 254.23 491.04 243.87 447.3"/></g><path d="m29.761 327.9s1.1511 66.766 8.058 88.637 5.7557 23.023 4.6046 26.476-2.3023 1.1511-2.3023 6.9068-2.3023 96.695 0 104.75-6.9068 21.872 0 23.023 39.139 0 40.29-6.9068-9.2091-9.2091-4.6045-13.814 11.511-98.998 11.511-98.998l16.116-65.615 29.93-34.534h63.312l19.569 75.975s-8.058 21.872-2.3023 21.872 40.29 6.9068 40.29-18.418-11.511-100.15-13.814-102.45 1.1511-10.36-2.3023-13.814-43.743-27.627-58.708-32.232-35.958-10.085-35.958-10.085z" fill="#2f2e41"/><path d="m254.23 482.15s-17.267-5.7557-25.325 11.511-4.6045 21.872-4.6045 21.872 26.476 9.2091 31.081 4.6045c2.0033-2.0033 8.3647-2.6993 14.913-2.8462 9.9729-0.22381 12.626-14.333 3.2075-17.619q-0.42145-0.147-0.85317-0.25539c-9.2091-2.3023-18.418-17.267-18.418-17.267z" fill="#2f2e41"/><circle cx="108.04" cy="59.682" r="34.534" fill="#ffb8b8"/><path d="m63.144 120.69s56.406 11.511 70.219-6.9068c13.814-18.418 19.569 51.801 19.569 51.801l6.9068 73.673-10.36 40.29s-54.103 43.743-71.37 47.197-43.743 5.7557-43.743 5.7557 8.058-127.78 8.058-130.08 20.72-81.731 20.72-81.731z" fill="#6c63ff"/><path d="m80.298 99.103s-12.55-7.1892-16.003-0.28241c-3.4534 6.9068-35.685 24.174-39.139 24.174s6.9068 95.544 2.3023 107.06-26.476 95.544-13.814 102.45 3.4534-6.9068 16.116 10.36 74.824 17.267 78.277 10.36-27.627-58.708-21.872-107.06 14.965-115.11 6.9068-124.32-12.775-22.74-12.775-22.74z" fill="#2f2e41"/><path d="m121.85 106.88 1.6034-5.518s47.895 15.878 50.198 26.238 1.1511 82.882-6.9068 88.637-19.569 14.965-11.511 28.778 17.267 28.778 24.174 29.93 19.569 9.2091 16.116 17.267-44.894-6.9068-44.894-6.9068-27.627-20.72-26.476-52.952-2.3023-125.47-2.3023-125.47z" fill="#2f2e41"/><path d="m162.14 242.71-27.627 51.801s-40.29 41.441-17.267 46.045 35.685-37.988 35.685-37.988l29.93-42.592z" fill="#ffb8b8"/><g fill="#2f2e41"><path d="m96.344 9.3532a7.8381 7.8381 0 0 0-4.0387 0.78334 9.4132 9.4132 0 0 0-2.7318 3.1307 39.773 39.773 0 0 1-11.75 11.524c-3.4914 2.2208-7.9301 4.9897-7.3328 9.0842a11.359 11.359 0 0 0 1.7018 3.8347 30.163 30.163 0 0 1 3.6652 18.801l9.6001-13.954c1.5239-2.2151 4.1712-4.7155 6.4721-3.3244 0.77039 0.46577 1.2762 1.3012 2.0784 1.7098 1.914 0.97518 3.9502-0.88912 5.6445-2.2097 5.8422-4.5536 14.15-3.3607 21.421-1.9419 3.4322 0.66981 7.2021 1.5486 9.231 4.3968 3.3717 4.7331-0.149 11.572 1.8188 17.04a5.0234 5.0234 0 0 0 2.0785-3.3172c2.7446 0.0848 6.1075-0.185 7.2834-2.6664a9.1876 9.1876 0 0 0 0.56374-3.0344c0.43161-4.1681 2.4691-7.9706 3.8188-11.938s1.9367-8.6162-0.34116-12.133a14.681 14.681 0 0 0-2.9843-3.1492c-12.926-10.861-29.921-12.652-46.198-12.636z"/><path d="m162.14 122.99 10.725 2.8469s24.96 63.919 19.204 107.66-9.2091 34.534-9.2091 34.534-9.2091-20.72-29.93-16.116z"/><path d="m48.623 624.58c-2.7759 3.7723-2.2194 9.1646-4.6783 13.151-2.1314 3.4553-6.1484 5.267-8.8144 8.3287a22.326 22.326 0 0 0-2.2662 3.2599c-2.4731 4.1426-4.4833 9.4517-2.0476 13.616 1.9594 3.3502 6.0779 4.6596 9.855 5.552 4.7741 1.128 9.7344 2.0307 14.564 1.1688s9.5488-3.819 11.271-8.4124a32.5 32.5 0 0 1 1.2051-3.4007c2.6175-5.1529 10.827-5.2086 13.506-10.33 1.8747-3.584 0.15138-7.9162-1.5712-11.576l-5.2611-11.177c-1.7459-3.7092-8.8236-1.5761-12.513-2.4649-4.8122-1.1592-9.7866-2.4363-13.248 2.2844z"/></g><path d="m10.192 265.74 48.348 74.824s29.93 37.987 39.139 20.72-32.232-46.045-32.232-46.045l-31.081-57.557z" fill="#ffb8b8"/><path d="m34.366 125.3-9.2091-2.3023s-18.418 5.7557-23.023 29.93-1.1511 120.87 4.6045 122.02 28.427-16.837 32.056-13.023-7.8824-15.756-4.429-26.116 3e-5 -110.51 3e-5 -110.51z" fill="#2f2e41"/><g transform="translate(-113.79 -787.89)" fill="#6c63ff"><path d="m618.82 961.54h10.468c-0.28678 2.237 0.56532 5.613-0.40889 7.1626h-10.06v-7.1626z"/><path d="m639.75 961.54h10.468c-0.28678 2.237 0.56532 5.613-0.40889 7.1626h-10.06v-7.1626z"/><path d="m536.72 961.54h71.075c-0.28678 2.237 0.56532 5.613-0.40889 7.1626h-70.666v-7.1626z"/><path d="m556.01 1016.6h29.752c-0.28678 2.237 0.56532 5.613-0.40889 7.1626h-29.343v-7.1626z"/><path d="m515.79 1016.6h29.752c-0.28678 2.237 0.56532 5.613-0.40889 7.1626h-29.343v-7.1626z"/><path d="m595.68 1016.6h71.075c-0.28678 2.237 0.56532 5.613-0.40889 7.1626h-70.666v-7.1626z"/><path d="m573.74 998.35h29.752c-0.28678 2.237 0.56531 5.613-0.40889 7.1626h-29.343v-7.1626z"/><path d="m551.64 997.58h10.468c-0.28678 2.2371 0.56532 5.613-0.40889 7.1626h-10.06v-7.1626z"/><path d="m536.72 979.36h29.752c-0.28678 2.237 0.56532 5.613-0.40889 7.1626h-29.343v-7.1626z"/><path d="m657.93 979.36h10.468c-0.28678 2.237 0.56532 5.613-0.40889 7.1626h-10.06v-7.1626z"/><path d="m576.39 979.36h71.075c-0.28678 2.237 0.56532 5.613-0.40889 7.1626h-70.666v-7.1626z"/><path d="m536.73 943.71h29.752c-0.28678 2.237 0.56532 5.613-0.40889 7.1626h-29.343v-7.1626z"/><path d="m515.79 943.71h10.468c-0.28678 2.237 0.56532 5.613-0.40889 7.1626h-10.06v-7.1626z"/><path d="m579.42 943.71h71.075c-0.28678 2.237 0.56532 5.613-0.40889 7.1626h-70.666v-7.1626z"/><path d="m663.6 943.71h29.752c-0.28678 2.237 0.56532 5.613-0.40889 7.1626h-29.343v-7.1626z"/><path d="m536.72 1037.9h29.752c-0.28678 2.237 0.56532 5.613-0.40889 7.1626h-29.343v-7.1626z"/><path d="m657.93 1037.9h10.468c-0.28678 2.237 0.56532 5.613-0.40889 7.1626h-10.06v-7.1626z"/><path d="m576.39 1037.9h71.075c-0.28678 2.237 0.56532 5.613-0.40889 7.1626h-70.666v-7.1626z"/></g></svg>
