<svg id="b543c902-2711-464d-9f40-b15eb324e31e" data-name="Layer 1" version="1.1" viewBox="0 0 710 670" xmlns="http://www.w3.org/2000/svg"><defs><linearGradient id="be976a09-f639-4984-bf14-ee296c482822-0" x1="320.96" x2="320.96" y1="796.01" y2="284.81" gradientTransform="matrix(.72164 0 0 .78646 -75.215 42.078)" gradientUnits="userSpaceOnUse"><stop stop-color="gray" stop-opacity=".25" offset="0"/><stop stop-color="gray" stop-opacity=".12" offset=".54"/><stop stop-color="gray" stop-opacity=".1" offset="1"/></linearGradient></defs><title>version control</title><path d="m419.32 94.017c-43.861-1.8819-85.634-19.354-125.53-38.474-39.896-19.12-79.399-40.305-122.21-50.434-27.535-6.5154-59.021-7.4354-81.209 10.781-21.348 17.564-28.247 47.799-31.96 75.877-2.7853 21.135-4.4322 43.366 3.2191 63.147 5.3064 13.733 14.733 25.275 21.253 38.432 22.676 45.767 6.6482 102.21-17.932 146.89-11.521 20.96-24.899 40.983-33.797 63.281-8.8982 22.298-13.012 47.883-5.2318 70.649 7.719 22.582 26.105 39.511 46.016 51.429 40.452 24.205 88.101 31.139 134.6 35.061 102.89 8.69 206.33 4.9263 309.49 1.1626 38.182-1.3968 76.526-2.8102 114.08-10.095 20.86-4.0481 42.397-10.472 57.537-25.928 19.22-19.68 23.984-53.01 11.107-77.683-21.605-41.393-81.324-51.68-96.443-96.1-8.3154-24.447 0.22364-51.688 12.3-74.363 25.915-48.652 69.349-91.325 71.64-146.94 1.5723-38.189-19.308-76.437-51.593-94.511-33.844-18.944-80.768-16.56-105.72 14.796-25.725 32.251-70.901 44.671-109.62 43.015z" fill="#6c63ff" opacity=".1" stroke-width=".75287"/><ellipse cx="157.27" cy="402.02" rx="4.0662" ry="5.0183" fill="#fff" stroke-width=".75287"/><g transform="matrix(.78892 0 0 .85094 -99.557 -5.5944)" opacity=".8"><g fill="none" stroke="#3f3d56" stroke-miterlimit="10" stroke-width="3"><line x1="330.04" x2="955.1" y1="290.49" y2="290.49"/><path transform="translate(-80.89,-103.35)" d="m466.46 393.83s29.89 4.15 14.41-27.92 42-26 42-26"/><path transform="translate(-80.89,-103.35)" d="m665.53 393.83s29.89-4.14 14.41 27.93 42 26 42 26"/><path transform="translate(-80.89,-103.35)" d="m952.16 393.83s-29.9-4.14-14.41 27.93-42 26-42 26"/><line x1="814.86" x2="649.93" y1="344.4" y2="344.4"/></g><circle cx="330.04" cy="290.49" r="18.25" fill="#6c63ff"/><circle cx="442.29" cy="236.3" r="18.25" fill="#3acc6c"/><circle cx="442.29" cy="290.49" r="18.25" fill="#6c63ff"/><circle cx="514.73" cy="290.49" r="18.25" fill="#6c63ff"/><circle cx="641.35" cy="344.13" r="18.25" fill="#ff6584"/><circle cx="737.03" cy="344.13" r="18.25" fill="#ff6584"/><g fill="#6c63ff"><circle cx="732.04" cy="290.49" r="18.25"/><circle cx="950.48" cy="290.49" r="18.25"/><circle cx="861.12" cy="290.49" r="18.25"/><rect x="299.38" y="122.66" width="61.23" height="42.2"/></g><rect x="411.9" y="122.66" width="61.23" height="42.2" fill="#3acc6c"/><rect x="610.48" y="122.66" width="61.23" height="42.2" fill="#ff6584"/></g><g transform="matrix(.6777 0 0 .83638 2.3678 .84389)" opacity=".1"><path transform="translate(-80.89,-103.35)" d="m167.24 402.71s-74.77-31.44-84.57 25.29c0 0-5.11 8.84 2 16.14 0 0 1.53-3.92 8.75 0.13a37.17 37.17 0 0 0 8.16 3.32 18.36 18.36 0 0 0 11.62-0.62s24.59-1.33 45.27-33.5c0 0 8.87-5.48 9.31-7.54l-14.82 1s1.14 10.85-5 17.36c0 0 5.44-16.84 2.83-17.31-0.53-0.1-7.83 0.86-7.83 0.86s1.89 18.87-8 28.63c0 0 9.18-19.19 5.19-28.29l-10.94 2.11s3 19.85-7.82 31.39c0 0 8.9-20.4 5.46-30.76l-10.47 3.52s2.52 19.41-6.53 29c0 0 7.9-24.61 4.18-28 0 0-9.42 3.82-11.43 6 0 0 1.49 14-4.26 19.05 0 0 3.53-17 1.78-17.7 0 0-10.94 8.24-14.28 15.35 0 0 4.16-10.86 12.91-17 0 0-7.35-1.24-13 1.83 0 0 3.78-7.21 15.65-3.79 0 0 8.79-6.09 10.55-6 0 0-11.23-5-19.34-4.38 0 0 8.7-5 22.08 3.35l10.45-3.77s-14.5-7.43-21.76-7.4c0 0 9.66-3.74 24.47 6.66l10.7-2.18s-12-7.35-20.09-9.06c0 0 9.7-1.54 23.18 8.55l7.31-0.61s-8.85-5.22-11.53-6.49-2.56-2.09-2.56-2.09a34.89 34.89 0 0 1 17.14 8.18s15.18-0.3 15.24-1.23z" fill="#6c63ff"/></g><g transform="matrix(.6777 0 0 .83638 2.3678 .84389)" opacity=".1"><path transform="translate(-80.89,-103.35)" d="m164.48 346.35s-26.48-61.27-64.63-33.17c0 0-8.06 2.34-8 10.7 0 0 3.14-1.46 5.13 5.07a30.1 30.1 0 0 0 3 6.61 15 15 0 0 0 7.25 6.25s15.37 13.22 46 5.89c0 0 8.4 1.79 9.83 0.83l-9.36-7.87s-5.51 7.1-12.89 7.44c0 0 12.83-6.9 11.55-8.67-0.26-0.36-5.15-3.94-5.15-3.94s-9.62 12.28-21 12.47c0 0 16.39-6.18 19.2-13.85l-7.7-5s-9.71 13.51-22.71 14.21c0 0 16.91-7.05 20.77-15.17l-8.23-3.87s-9.56 13-20.37 13.49c0 0 18.72-10.12 18.43-14.25 0 0-7.77-3.1-10.24-2.92 0 0-7.07 9.15-13.38 8.89 0 0 11.79-8.09 11.15-9.5 0 0-11.2-1.34-17.23 1 0 0 8.66-4.08 17.35-2.74 0 0-3.66-4.93-8.75-6.3 0 0 6.36-2.13 11.46 6.65 0 0 8.68 1.4 9.7 2.44 0 0-3.81-9.39-9-13.62 0 0 8 2 11.2 14.57l8.36 3.71s-4.38-12.68-8.72-16.79c0 0 7.87 3.28 10.75 17.9l7.6 4.79s-2.94-11.2-6.77-16.83c0 0 6.64 4.62 8.89 18.29l4.7 3.8s-2.29-8.14-3.16-10.42-0.33-2.7-0.33-2.7a28.65 28.65 0 0 1 5.49 14.68s9.24 8.44 9.81 7.93z" fill="#6c63ff"/></g><g stroke-width=".75335"><path d="m306.98 635.73c-0.72164-2.847-1.4433-5.7254-2.8866-8.2027a26.361 28.729 0 0 0-4.7268-5.639c-5.2319-5.1748-11.654-10.428-18.589-9.1229a24.817 27.046 0 0 0-6.1628 2.4538c-1.0103 0.5112-2.0278 1.0224-3.067 1.4549a15.277 16.649 0 0 1-9.2514 0.8809c-1.5876-0.464-3.067-1.2977-4.6329-1.8168a14.685 16.004 0 0 0-2.2732-0.5347 38.709 42.186 0 0 0 4.3948-2.5246c7.7793-5.1906 13.985-14.573 13.119-24.608-0.29589-3.3739-1.3567-6.6062-2.4103-9.7914l-2.7711-8.3521c-1.1979-3.6178-2.4391-7.3063-4.6257-10.31-2.4319-3.3503-5.8958-5.6232-9.4751-7.3141-7.6855-3.6413-16.085-4.9232-24.377-6.1658l-0.57731-0.086v-97.623a5.7731 6.2917 0 0 0-5.7731-6.2917h-10.897q-0.72163-4.8131-1.4433-9.6105c-1.3711-9.1308-2.7928-18.427-6.6535-26.645-2.5257-5.3794-6.5452-10.515-11.965-11.569a11.604 12.646 0 0 1-3.1102-0.7865c-1.5876-0.8493-2.4536-2.7368-3.6732-4.1289-3.1464-3.5941-8.2628-3.6491-12.477-5.5052-3.7237-1.6122-6.769-4.6479-10.161-6.9837-3.3917-2.3358-7.6061-3.9952-11.359-2.4774 0 0.2989-0.0506 0.5977-0.0794 0.8887l-2.4103-1.2111c-2.5979-1.3134-5.2463-2.6582-7.3319-4.8131-2.6773-2.7526-4.1061-6.4018-5.2174-10.279-0.11547-0.4011-0.22372-0.7865-0.33917-1.2191a33.506 36.515 0 0 0 8.9772-18.678l0.58455 2.0683a12.593 13.724 0 0 0 0.46184 1.3685 4.9504 5.3951 0 0 0 1.4433 2.2257 2.5618 2.7919 0 0 0 0.60617 0.3853 2.5257 2.7526 0 0 0 0.62061 0.173 2.3092 2.5167 0 0 0 0.89482-0.071 3.4134 3.7199 0 0 0 2.1649-2.1863 4.3298 4.7188 0 0 0 0.25257-0.9595 4.5535 4.9626 0 0 0 0.0507-0.5977v-0.1888-0.4089-0.2202c0-0.079 0-0.2595-0.0359-0.3932v-0.2045c0-0.1573-0.0432-0.3146-0.0721-0.464-0.0289-0.1495 0-0.087 0-0.1259-0.036-0.1966-0.0794-0.4011-0.11547-0.5977v-0.1494c0-0.047-0.065-0.3225-0.101-0.4876-0.0359-0.1652-0.0507-0.2124-0.0721-0.3225v-0.047c-0.0722-0.3145-0.13711-0.6213-0.20206-0.9358a24.81 27.038 0 0 1-0.39692-8.305 81.603 88.933 0 0 1 2.0639-12.072l0.15154-0.71568c0.0578-0.27526 0.11545-0.55052 0.16597-0.83364 0.11545-0.56625 0.23093-1.1325 0.33917-1.7066l0.25978-1.4471 0.19485-1.2898v-0.16515a34.213 37.286 0 0 0 0.25258-8.8319c-0.33195-4.1132-1.501-8.0061-4.0628-11.105-1.8113-2.1942-4.1999-3.8143-5.8814-6.1186-1.5732-2.1549-2.4608-4.8131-4.0917-6.9287-4.503-5.8591-16.064-10.373-23.157-11.16-8.1257-0.89656-21.252 1.3684-27.805 6.5984-2.4247 1.9268-4.0845 4.7188-5.7731 7.3612-3.1031 4.9154-6.6247 9.8229-11.597 12.583-1.8763 1.0381-4.0268 1.8246-5.2752 3.6334a9.0133 9.8229 0 0 0-1.4072 4.0739 74.12 80.777 0 0 0-1.4866 15.556v1.9662a13.155 14.337 0 0 0 1.1258 5.6861c0.11546 0.2674 0.24536 0.52693 0.38248 0.78645l0.0866 0.16517a28.707 31.285 0 0 1 2.3092 4.2862 5.2102 5.6782 0 0 1 0.35362 1.3055 8.8329 9.6262 0 0 1-0.20208 3.4447c0 0.17302-0.065 0.34604-0.0937 0.51906l-0.065 0.33818c0 0.11797 0 0.23594-0.0577 0.34604-0.0577 0.33818-0.10824 0.67636-0.15155 1.0067a6.4948 7.0781 0 0 0 0.15878 2.7211 3.2835 3.5784 0 0 0 1.602 2.3594 4.6907 5.112 0 0 0 1.299 0.4404c0.45464 0.087 0.91648 0.1416 1.3639 0.2517a6.7329 7.3377 0 0 1 1.6526 0.6685 6.6535 7.2511 0 0 1 1.3928 0.9752 7.938 8.651 0 0 1 0.59897 0.6606 10.103 11.01 0 0 1 1.0247 1.5257q0.23092 0.4168 0.43297 0.8494a17.803 19.402 0 0 1 1.234 3.5548c0.18761 0.7314 0.34638 1.4707 0.4835 2.2099 0.065 0.3303 0.12266 0.6607 0.17317 0.9831 0.0506 0.3225 0.10101 0.6528 0.14434 0.9752a2.1 2.2886 0 0 0 0.57731-0.1258c1.0608-0.4168 1.6526-1.7617 1.9845-3.0672 0.0577-0.2202 0.10824-0.4326 0.15153-0.6449 0.16598-0.7865 0.33919-1.6516 0.50516-2.4773a33.462 36.468 0 0 0 13.17 15.808c0.20204 0.6527 0.39689 1.2976 0.57007 1.9582 0.94536 3.5627 1.4 7.2905-0.23812 10.405-1.1691 2.2099-3.1319 3.5705-5.3257 4.5143a3.5216 3.8379 0 0 0-1.1907-1.1011c-1.8979-1.0381-4.1783 0.2202-5.7731 1.7695-2.8866 2.847-5.2391 6.9288-9.0349 7.8646-1.3711 0.3461-2.8866 0.2753-4.0267 1.1876a9.3813 10.224 0 0 0-1.8691 2.6739 8.6019 9.3746 0 0 1-7.3824 4.011c-1.3206-0.071-2.8866-0.4011-3.7886 0.6527-0.67111 0.7865-0.72162 2.0291-1.4433 2.7762-0.96699 1.0382-2.5546 0.5348-3.9041 0.4719-2.569-0.118-4.9577 1.6909-6.4226 4.011-1.4649 2.32-2.1649 5.0962-2.8866 7.8645v0.047a5.1597 5.6232 0 0 0-0.5268 0.4798 7.6133 8.2971 0 0 0-1.5948 2.8155 123.31 134.38 0 0 0-10.175 45.756 4.3298 4.7188 0 0 1-0.46186 2.2179 10.009 10.908 0 0 1-1.0608 1.2583 4.0484 4.412 0 0 0 0.67111 6.2917 4.5463 4.9547 0 0 1 0.77216-1.1168c-0.0793 0.3618-0.15154 0.7157-0.20205 1.0381a25.611 27.911 0 0 0-0.0793 6.9208q1.0247 16.39 2.0711 32.756c0.19485 3.0908 0.38968 6.1737 0.64948 9.2566q0.75771 8.9499 2.1649 17.829c0.0434 0.2674 0.0937 0.5426 0.15876 0.7864-5.8814 2.0369-11.113 5.7176-13.314 11.86-0.76495 2.1234-1.1113 4.4356-2.0495 6.4726-1.0319 2.2335-2.7278 4.0188-3.8536 6.2051-1.9412 3.7593-2.0278 8.3679-1.3206 12.583 1.3639 8.2185 5.4412 15.564 10.825 21.541h-0.72164a11.286 12.3 0 0 0-4.9288 1.9269c-11.387 7.2511-17.897 22.807-15.522 37.011 0.46907 2.7762 1.2845 5.5917 2.9876 7.7072a11.193 12.198 0 0 0 5.2535 3.5076 18.25 19.89 0 0 0 3.8752 0.7865c8.8762 0.7865 17.471-3.6963 26.369-4.0738a70.721 77.073 0 0 1 8.8256 0.4482q6.4298 0.582 12.881 0.7393c6.9927 0.1809 10.926-1.8482 15.385-7.5421a18.835 20.527 0 0 0 2.7206-4.6715c3.7958-0.2359 7.9885-0.5977 11.019-0.8651l0.0434 0.4561c0.16597 1.573 0.41855 3.3818 1.5732 4.3728a5.4917 5.9849 0 0 0 2.1649 0.9673c7.2886 1.9504 14.664 3.9323 22.169 3.9323a93.604 102.01 0 0 0 10.529-0.8809l13.184-1.6594a65.669 71.568 0 0 1 11.33 2.6897c3.8102 1.4077 7.3679 3.4997 11.092 5.1592 8.6597 3.8221 17.969 5.1906 27.191 6.5276 1.5732 0.228 3.3773 0.3853 4.5391-0.7865 1.501-1.5729 1.0031-4.1997 0.57732-6.4018-0.17318-0.9044-0.30309-1.8088-0.40412-2.7211a126.47 137.83 0 0 1 18.214 6.8894l1.032 0.4954c0.30308 1.7145 1.7536 3.0829 3.1463 4.9311a11.546 12.583 0 0 0 1.5948 2.1549 5.3185 5.7962 0 0 0 2.2876 0.8966 106.67 116.25 0 0 0 29.537 1.4549 30.208 32.921 0 0 1 6.0906-0.228 26.398 28.769 0 0 1 4.402 1.0774l8.3494 2.611c6.1556 1.919 12.455 3.8616 18.842 3.429a24.103 26.268 0 0 0 3.8463-0.6056c5.0515-1.274 9.7566-4.3491 12.181-9.2959 3.4278-6.7242 1.8474-14.998 0-22.39z" fill="url(#be976a09-f639-4984-bf14-ee296c482822-0)"/><path d="m73.377 634.19c-1.5227-3.775-2.9659-8.1162-1.4433-11.891a9.2731 10.106 0 0 1 4.7989-4.9154 23.092 25.167 0 0 1 6.4948-1.7459 90.645 98.787 0 0 1 21.115-0.3146c0.51235 4.4199-0.57009 8.9027-1.501 13.173-0.84433 3.9323-1.3278 4.5142-5.0515 4.7187-2.4103 0.1416-23.843 2.3673-24.413 0.9752z" fill="#fbbebe"/><ellipse cx="137.64" cy="577.27" rx="103.19" ry="31.458" fill="#464353"/><ellipse cx="137.64" cy="577.27" rx="103.19" ry="31.458" opacity=".1"/><path d="m156.14 411.2a32.106 34.99 0 0 1-16.554 16.39 41.552 45.284 0 0 1-13.141 2.7212c-4.8999 0.2438-9.9009-0.1023-14.505-1.9269-6.1772-2.438-11.308-7.4241-15.154-13.236-3.8463-5.812-6.4947-12.45-8.7968-19.142-1.2124-3.4841-2.367-7.1961-1.7969-10.877 3.7164-0.9201 7.7865-2.2728 9.7061-5.8669 1.6381-3.083 1.1835-6.7793 0.23813-10.303-0.267-0.9987-0.5773-1.9897-0.88762-2.9413-0.72164-2.2807-3.2113-6.6141-1.4433-8.5645 1.1041-1.2348 5.7298-1.8639 7.3246-2.6661 4.9144-2.4695 9.4462-6.04 14.844-7.2118 4.669-1.0146 9.4896-0.063 14.151 0.9909a4.6546 5.0727 0 0 1 1.7464 0.6842 4.1999 4.5772 0 0 1 1.2989 2.1234c1.3278 3.5234 2.1072 7.4163 3.1752 11.089 1.1113 3.8458 2.5402 7.4556 5.2175 10.185 2.0855 2.1313 4.7412 3.4683 7.3391 4.766l6.3937 3.193a8.4071 9.1622 0 0 1 3.0237 2.1313 7.6566 8.3443 0 0 1 1.4433 4.2783 36.674 39.968 0 0 1-3.6226 24.184z" fill="#fbbebe"/><path d="m136.32 362.47a33.195 36.177 0 0 1-40.174 6.4961c-0.26701-0.9987-0.57731-1.9897-0.88763-2.9413-0.72163-2.2807-3.2113-6.6141-1.4433-8.5645 1.1041-1.2348 5.7298-1.8639 7.3246-2.6661 4.9144-2.4695 9.4462-6.04 14.844-7.2118 4.669-1.0146 9.4896-0.063 14.151 0.9909a4.6546 5.0727 0 0 1 1.7464 0.6842 4.1999 4.5772 0 0 1 1.299 2.1234c1.2917 3.5234 2.0711 7.4163 3.1391 11.089z" opacity=".1"/><ellipse cx="112.38" cy="335.83" rx="33.195" ry="36.177" fill="#fbbebe"/><path d="m213.52 453.24-2.7278-18.01c-1.3784-9.0364-2.8-18.246-6.6535-26.386-2.5329-5.3322-6.5525-10.413-11.972-11.467a11.582 12.623 0 0 1-3.1175-0.7865c-1.5876-0.8336-2.4536-2.7054-3.6731-4.0895-3.1464-3.5548-8.27-3.6099-12.484-5.4188-3.7236-1.5729-6.769-4.6007-10.161-6.9129-3.3917-2.3122-7.6133-3.9323-11.366-2.4538-0.60617 7.0388-1.2484 14.235-3.9907 20.645a28.346 30.892 0 0 1-42.764 11.608c-6.4298-5.2771-10.55-13.417-12.47-21.934-0.46906-2.0763-1.0031-4.4593-2.7566-5.4109-1.8979-1.0381-4.1783 0.2202-5.7731 1.746-2.8866 2.8234-5.2463 6.8657-9.0421 7.8174-1.3711 0.346-2.8866 0.2752-4.0268 1.1797a9.1648 9.988 0 0 0-1.8763 2.6503 8.6597 9.4375 0 0 1-7.3824 3.9795c-1.3206-0.071-2.8866-0.4011-3.7886 0.6449-0.67113 0.7864-0.72165 2.0133-1.4433 2.7447-0.97422 1.0303-2.5546 0.527-3.9113 0.4719-2.569-0.118-4.9577 1.6752-6.4298 3.9323-1.4721 2.2571-2.1649 5.0491-2.8866 7.7545 7.8875 19.142 15.104 38.308 22.991 57.451a4.4958 4.8996 0 0 1 0.57009 2.3593 5.2752 5.749 0 0 1-0.98143 2.3594c-3.868 6.7714-3.7453 15.289-3.3195 23.248 0.42577 7.959 0.94534 16.366-2.3165 23.499-0.88761 1.9583-2.0422 3.7514-2.8866 5.7097-1.9773 4.4356-2.6917 18.623-1.5371 23.389h163.15c-3.1103-9.3195-1.9268-28.022-1.2773-37.915 0.45463-6.9208-0.72163-13.834-1.2268-20.755-1.1041-14.133-0.32474-27.542-2.468-41.651z" fill="#6c63ff"/><path d="m30.324 473.84a25.546 27.841 0 0 0-0.0866 6.8658l2.0711 32.457c0.19485 3.0594 0.38969 6.1108 0.64948 9.1623 0.49794 5.922 1.2412 11.797 2.1649 17.664a2.8866 3.1458 0 0 0 2.9587 3.0594c9.1287 2.1077 18.561 2.0212 27.877 1.447 14.216-0.8651 28.411-2.8391 42.649-2.5009 3.6659 0.087 7.938 0 10.161-3.1458 2.2227-3.1459 0.93092-8.2342-1.9701-10.774-2.901-2.5403-6.8411-3.1458-10.565-3.1458-4.9288-0.055-9.8576 0.7078-14.772 0.3932-4.5102-0.291-8.9194-1.4785-13.293-2.6661l-12.268-3.3267c0.46906-4.0503 1.8835-7.8646 3.2257-11.71 2.4103-6.8186 4.6618-13.865 4.7051-21.171 0.0434-7.3062-2.4824-14.99-7.9741-19.174-4.5175-3.4368-10.334-4.0738-15.84-3.9323-4.0051 0.1259-10.926-0.9201-14.584 0.7865-2.8938 1.3841-4.568 6.622-5.1092 9.7127z" fill="#fbbebe"/><path d="m221.87 548.05c2.403-0.9988 5.0515-0.637 7.6277-0.2595 8.2916 1.2347 16.706 2.501 24.391 6.1108 3.6082 1.683 7.0432 3.9323 9.4823 7.2433 2.1649 2.9806 3.4278 6.6298 4.6257 10.224l2.7711 8.2736c1.0536 3.1458 2.1216 6.3546 2.4175 9.697 0.86596 9.9015-5.3474 19.237-13.163 24.38-7.8154 5.1434-17.016 6.9759-25.979 8.8949-8.9628 1.9189-17.962 4.0424-26.888 6.2916a108.25 117.97 0 0 1-12.65 2.7133c-9.5545 1.1797-19.542-0.5584-28.62 2.8863-3.6082 1.3763-7.1514 3.4211-10.897 4.3727a67.784 73.872 0 0 1-7.5339 1.2505l-17.182 2.1391a93.734 102.15 0 0 1-10.536 0.8808c-7.5051 0-14.887-1.9346-22.176-3.8693a5.6071 6.1108 0 0 1-2.1649-0.9516c-1.1546-0.9909-1.4072-2.7447-1.5732-4.3334q-1.1041-10.546-1.934-21.116c-0.1732-2.2886-0.30309-4.7659 0.84432-6.6928 1.4433-2.3593 4.2577-3.0986 6.8267-3.5548a178.16 194.16 0 0 1 32.964-2.493c4.1927-4.5693 11.106-4.5929 16.598-7.0781a49.353 53.786 0 0 0 5.8525-3.4683 76.494 83.365 0 0 1 32.135-11.066 29.912 32.599 0 0 0 6.5741-1.0224c4.2505-1.4392 8.1257-5.3558 12.492-4.3963 0.54124-1.628 0.91648-3.8065 2.1649-4.9232 0.6206-0.5741 1.3856-0.9595 1.9556-1.5729 1.2051-1.3292 1.3134-3.4211 1.133-5.2772-0.18041-1.856-0.58453-3.7592-0.14432-5.5681a7.0648 7.6994 0 0 1 0.80101-1.9426c2.1649-4.0738 5.4339-6.1658 9.7854-5.7726z" fill="#464353"/><path d="m221.87 548.05c2.403-0.9988 5.0515-0.637 7.6277-0.2595 8.2916 1.2347 16.706 2.501 24.391 6.1108 3.6082 1.683 7.0432 3.9323 9.4823 7.2433 2.1649 2.9806 3.4278 6.6298 4.6257 10.224l2.7711 8.2736c1.0536 3.1458 2.1216 6.3546 2.4175 9.697 0.86596 9.9015-5.3474 19.237-13.163 24.38-7.8154 5.1434-17.016 6.9759-25.979 8.8949-8.9628 1.9189-17.962 4.0424-26.888 6.2916a108.25 117.97 0 0 1-12.65 2.7133c-9.5545 1.1797-19.542-0.5584-28.62 2.8863-3.6082 1.3763-7.1514 3.4211-10.897 4.3727a67.784 73.872 0 0 1-7.5339 1.2505l-17.182 2.1391a93.734 102.15 0 0 1-10.536 0.8808c-7.5051 0-14.887-1.9346-22.176-3.8693a5.6071 6.1108 0 0 1-2.1649-0.9516c-1.1546-0.9909-1.4072-2.7447-1.5732-4.3334q-1.1041-10.546-1.934-21.116c-0.1732-2.2886-0.30309-4.7659 0.84432-6.6928 1.4433-2.3593 4.2577-3.0986 6.8267-3.5548a178.16 194.16 0 0 1 32.964-2.493c4.1927-4.5693 11.106-4.5929 16.598-7.0781a49.353 53.786 0 0 0 5.8525-3.4683 76.494 83.365 0 0 1 32.135-11.066 29.912 32.599 0 0 0 6.5741-1.0224c4.2505-1.4392 8.1257-5.3558 12.492-4.3963 0.54124-1.628 0.91648-3.8065 2.1649-4.9232 0.6206-0.5741 1.3856-0.9595 1.9556-1.5729 1.2051-1.3292 1.3134-3.4211 1.133-5.2772-0.18041-1.856-0.58453-3.7592-0.14432-5.5681a7.0648 7.6994 0 0 1 0.80101-1.9426c2.1649-4.0738 5.4339-6.1658 9.7854-5.7726z" opacity=".05"/><path d="m80.016 639.05c-4.467 5.6389-8.3999 7.6522-15.393 7.4714q-6.4514-0.1652-12.888-0.7315a72.308 78.803 0 0 0-8.8329-0.4482c-8.905 0.3775-17.5 4.8209-26.383 4.0424a18.705 20.385 0 0 1-3.8752-0.7865 11.279 12.292 0 0 1-5.2608-3.4761c-1.703-2.0999-2.5185-4.8839-2.9876-7.6365-2.3742-14.109 4.135-29.476 15.53-36.657a11.387 12.41 0 0 1 4.936-1.9111 11.698 12.748 0 0 1 4.9937 1.1954l0.10825 0.047a37.763 41.155 0 0 1 12.369 8.9971 6.971 7.5972 0 0 0 1.8907 1.6594 6.4948 7.0781 0 0 0 2.2299 0.4561l9.4824 0.6528a22.472 24.49 0 0 1 4.7628 0.7157 37.857 41.258 0 0 1 5.0082 2.3593c5.102 2.4853 10.76 3.1459 16.273 4.1054a2.4319 2.6504 0 0 1 1.4433 0.6291 2.2587 2.4616 0 0 1 0.44741 1.0224 18.409 20.063 0 0 1-3.8536 18.293z" fill="#3f3d56"/><path d="m29.963 600.17a56.937 62.052 0 0 0-9.4896 12.929 59.376 64.71 0 0 0-7.7504 25.591 43.587 47.502 0 0 0-0.0793 9.9172 11.279 12.292 0 0 1-5.2608-3.4762c-1.7031-2.0998-2.5185-4.8838-2.9876-7.6364-2.3742-14.109 4.135-29.476 15.53-36.657a11.387 12.41 0 0 1 4.936-1.9111 11.698 12.748 0 0 1 4.9938 1.1955z" opacity=".1"/><path d="m213.61 619.74c5.304-0.1573 11.258-0.4483 15.154 3.4447 3.7164 3.6806 4.2072 9.7521 4.4525 15.218l0.28144 6.3467c0.0866 1.9346 0.15875 3.9322-0.55567 5.7254-1.2701 3.1458-4.7556 4.6637-7.938 4.4828-3.1824-0.1809-6.1051-1.6988-9.0133-3.0672a126.79 138.18 0 0 0-24.536-8.423q0.41133-6.5826 1.3711-13.102c0.44019-3.0122 0.51235-8.0534 2.3598-10.554 1.9556-2.6425 4.503-1.2111 7.1586-0.7235a57.464 62.626 0 0 0 11.265 0.6527z" fill="#fbbebe"/><path d="m73.442 555.97c0 0.7865-1.133 0-1.234-0.84153-0.7938-6.3624-5.4267-11.608-10.825-14.156-5.3978-2.5482-11.546-2.6819-17.391-2.0763-8.8401 0.9123-18.763 4.6008-21.996 13.606-0.76495 2.1077-1.1113 4.3885-2.0494 6.4097-1.0392 2.2178-2.735 3.9873-3.8608 6.1422-1.9412 3.7278-2.0206 8.2971-1.3206 12.513 1.8835 11.246 8.9411 20.865 17.493 27.526 8.5514 6.6613 18.546 10.641 28.512 14.227a494.46 538.87 0 0 0 80.824 21.038c4.4453 0.7314 8.9339 1.4077 13.192 2.9649 3.8102 1.392 7.3752 3.4761 11.099 5.112 8.6597 3.7907 17.976 5.1434 27.206 6.4725 1.5732 0.2202 3.3773 0.3775 4.5391-0.7864 1.501-1.5179 1.0031-4.1604 0.57731-6.3389a31.283 34.093 0 0 1 3.6876-24.191c1.5443-2.8313 3.5505-5.7333 3.2618-9.0128-0.34639-3.8222-3.8391-6.5276-7.3174-7.1411-3.4783-0.6134-7.0144 0.291-10.507 0.7865-1.2052 0.173-2.5185 0.2831-3.5721-0.3854a7.137 7.7781 0 0 1-1.4-1.3527 15.826 17.247 0 0 0-18.431-2.8076c-1.2917 0.7864-3.2474-0.9674-4.5896-1.628l-15.176-7.4871c-17.435-8.596-34.956-17.231-53.401-22.674a11.214 12.222 0 0 1-4.1134-1.8639c-0.91647-0.7864-1.5732-1.856-2.4175-2.729-1.8402-1.8953-4.402-2.6503-6.6102-3.9952-2.2082-1.3448-4.6834-4.6322-4.1783-7.3298z" fill="#464353"/><path d="m307.4 658.75c-2.4247 4.8996-7.1298 7.9511-12.181 9.2094a24.175 26.346 0 0 1-3.8536 0.5977c-6.3865 0.4326-12.694-1.4942-18.849-3.3975l-8.3566-2.5638a26.376 28.745 0 0 0-4.402-1.0696 30.208 32.921 0 0 0-6.0906 0.2281 107.95 117.65 0 0 1-29.587-1.4471 5.2175 5.6861 0 0 1-2.2876-0.8887 11.366 12.387 0 0 1-1.5948-2.1313c-2.2732-2.9807-4.7195-4.7187-2.0278-8.651 1.5515-2.2808 4.4309-3.4211 5.636-6.04 1.2051-2.6189 0.43297-6.3389-0.28143-9.0443-0.97423-3.7357-4.1783-5.3479-5.3257-8.7768-0.85876-2.5875 0.58451-5.5918 2.7566-6.9995 2.1722-1.4078 4.8566-1.5179 7.3607-1.1561 2.5041 0.3617 4.9577 1.1325 7.4762 1.3448 7.404 0.6449 14.974-3.5154 22.082-1.1718 1.566 0.5191 3.0453 1.3448 4.6329 1.801a15.407 16.791 0 0 0 9.2586-0.873c1.0392-0.4247 2.0567-0.9359 3.067-1.4392a24.702 26.92 0 0 1 6.17-2.4302c6.935-1.2976 13.365 3.9323 18.597 9.0365a26.297 28.659 0 0 1 4.7267 5.5838c1.4433 2.4538 2.2082 5.3086 2.8866 8.1241 1.9123 7.2747 3.4927 15.47 0.18762 22.154z" fill="#3f3d56"/><path d="m307.4 658.75c-2.4247 4.8996-7.1298 7.9511-12.181 9.2094a23.59 25.709 0 0 0 2.5618-13.496c-0.43298-7.4792-3.4494-14.526-7.2958-20.739a67.401 73.455 0 0 0-8.0391-10.672c-2.2948-2.5167-5.1164-4.5143-7.5844-6.8186a24.702 26.92 0 0 1 6.17-2.4301c6.935-1.2977 13.365 3.9322 18.597 9.0364a26.297 28.659 0 0 1 4.7267 5.5838c1.4433 2.4538 2.2082 5.3086 2.8865 8.1241 1.8835 7.3219 3.4639 15.517 0.15878 22.202z" opacity=".1"/><path d="m42.412 416.13a7.469 8.1398 0 0 0-1.602 2.7919 121.13 132.01 0 0 0-10.175 45.316 4.1566 4.53 0 0 1-0.46907 2.1942 8.8112 9.6027 0 0 1-1.0608 1.2505 3.9834 4.3412 0 0 0 0.67835 6.2917c1.1907-2.4459 4.0412-3.2402 6.5741-3.4526 12.131-1.046 23.98 5.1041 36.147 4.6401-0.85875-3.2323-2.0928-6.3388-2.7928-9.6105-3.0958-14.526 4.6257-30.342-0.10824-44.333-0.94535-2.7998-2.5257-5.5524-5.0154-6.7792a13.358 14.557 0 0 0-3.2113-0.9281c-3.0742-0.6055-9.1937-3.193-12.167-2.1548-1.0969 0.3853-1.5299 1.51-2.4392 2.1863-1.3783 0.9674-3.2113 1.3213-4.3587 2.5875z" fill="#6c63ff"/><rect x="68.001" y="444.75" width="160.93" height="111.68" rx="5.7515" fill="#3f3d56"/><ellipse cx="148.1" cy="500.59" rx="4.3298" ry="4.7188" fill="#fff"/><path d="m89.448 277.11c-2.4247 1.9111-4.0845 4.6558-5.7731 7.2905-3.1103 4.8682-6.6319 9.7285-11.604 12.442-1.8835 1.0303-4.034 1.8088-5.2824 3.602a8.905 9.7049 0 0 0-1.4072 4.0345 73.355 79.943 0 0 0-1.4866 15.415c0 2.5796 0.101 5.2378 1.1474 7.5815 0.98864 2.2021 2.7711 4.066 3.1391 6.4647 0.28144 1.8718-0.3536 3.7356-0.57731 5.6154-0.22371 1.8796 0.16597 4.1053 1.7608 5.0019a10.673 11.632 0 0 0 2.6701 0.6842c4.7989 1.1639 6.4082 7.2983 7.137 12.371 1.6309-0.1023 2.367-2.1392 2.7061-3.7986l5.001-24.231c0.54123-2.6268 1.4433-5.6704 3.8463-6.5905 1.6092-0.60557 3.37-0.0394 5.0515 0.11797 6.603 0.58985 12.189-4.9704 18.647-6.504a23.814 25.953 0 0 1 6.2855-0.45614c5.0948 0.27525 11.019 2.556 12.102 7.7388 0.1804 0.8415 0.28865 1.8482 1.0103 2.265 0.72164 0.41682 1.4794 0.0629 2.2371 0 3.233-0.35391 5.1381 3.6098 6.069 6.85l3.3917 11.797c0.50515 1.7853 1.3567 3.8852 3.1319 4.1132 1.6381 0.2202 3.0309-1.4707 3.2762-3.1458 0.24535-1.6752-0.28865-3.4132-0.64226-5.0963-1.5948-7.7466 0.84431-15.674 2.3309-23.436 1.4866-7.7624 1.7536-16.681-3.233-22.658-1.8113-2.1628-4.1927-3.775-5.8814-6.0557-1.5732-2.1392-2.4608-4.7659-4.0917-6.8658-4.5103-5.7962-16.078-10.271-23.172-11.01-8.104-0.95948-21.238 1.2819-27.79 6.4647z" fill="#3f3d56"/></g><g transform="matrix(.72164 0 0 .78646 -16.842 123.36)" opacity=".1"><path transform="translate(-80.89,-103.35)" d="m310.26 383.15c-2.46-0.3-3.64-3-4.34-5.23q-2.35-7.51-4.7-15c-1.29-4.13-3.93-9.17-8.41-8.71-1.05 0.11-2.18 0.52-3.1 0s-1.15-1.81-1.4-2.88c-1.5-6.6-9.71-9.49-16.77-9.84a33.43 33.43 0 0 0-8.71 0.57c-8.95 2-16.69 9-25.84 8.27-2.36-0.19-4.8-0.91-7-0.14-3.37 1.16-4.58 5-5.33 8.38l-6.93 30.8c-0.47 2.12-1.49 4.71-3.75 4.83-1-6.44-3.24-14.24-9.89-15.72a15.72 15.72 0 0 1-3.7-0.87 4.34 4.34 0 0 1-1.93-2.15c-0.18 0.93-0.39 1.86-0.51 2.79-0.3 2.38 0.23 5.22 2.44 6.36a14.79 14.79 0 0 0 3.7 0.87c6.65 1.48 8.88 9.28 9.89 15.73 2.26-0.13 3.28-2.72 3.75-4.83l6.93-30.81c0.75-3.34 2-7.21 5.33-8.38 2.23-0.77 4.67-0.05 7 0.15 9.15 0.75 16.89-6.32 25.84-8.27a33 33 0 0 1 8.71-0.58c7.06 0.35 15.27 3.25 16.77 9.84 0.25 1.07 0.4 2.35 1.4 2.88s2.05 0.08 3.1 0c4.48-0.45 7.12 4.59 8.41 8.71q2.34 7.51 4.7 15c0.7 2.27 1.88 4.94 4.34 5.23 2.27 0.28 4.2-1.87 4.54-4a13.58 13.58 0 0 0-0.6-5.31 4.13 4.13 0 0 1-3.94 2.31z"/><path transform="translate(-80.89,-103.35)" d="m198.72 364.11c-0.51-3.05-3-5.42-4.35-8.22a16.45 16.45 0 0 1-1.48-6c0 1.12-0.1 2.24-0.11 3.37 0 3.28 0.14 6.66 1.59 9.64 1.11 2.27 2.94 4.27 3.86 6.58a15.06 15.06 0 0 0 0.49-5.37z"/><path transform="translate(-80.89,-103.35)" d="m317.14 342.83c-1.82 8.72-4.66 17.6-3.78 26.34 0.57-6.45 2.45-12.94 3.78-19.34a51 51 0 0 0 1.16-14.83 61.14 61.14 0 0 1-1.16 7.83z"/></g></svg>
